# Blender v2.82 (sub 7) OBJ File: 'abaia.blend'
# www.blender.org
mtllib abaia.mtl
o Tail02
v -0.043835 -0.019646 -1.407232
v 0.043665 -0.019646 -1.407232
v 0.043665 0.152457 -1.375521
v -0.043835 0.152457 -1.375521
v 0.043665 0.075487 -1.923541
v -0.043835 0.075487 -1.923541
v -0.043835 0.247590 -1.891830
v 0.043665 0.247590 -1.891830
v -0.021960 0.094329 -1.869937
v 0.021790 0.094329 -1.869937
v 0.021790 0.225442 -1.863960
v -0.021960 0.225442 -1.863960
v 0.021790 0.118236 -2.394392
v -0.021960 0.118236 -2.394392
v -0.021960 0.249349 -2.388415
v 0.021790 0.249349 -2.388415
v 0.000352 0.011029 -2.924825
v 0.000352 -0.038777 -1.832209
v 0.000352 0.398269 -1.812286
v 0.000352 0.448075 -2.904902
v -0.000085 0.220420 -1.985809
v -0.000085 0.101504 -1.340423
v -0.000085 0.316632 -1.300784
v -0.000085 0.435548 -1.946170
v -0.000085 -0.085961 -2.034066
v -0.000085 -0.175364 -1.383934
v -0.000085 0.041346 -1.354133
v -0.000085 0.130750 -2.004264
vt 0.440000 0.575000
vt 0.460000 0.575000
vt 0.460000 0.625000
vt 0.440000 0.625000
vt 0.580000 0.575000
vt 0.600000 0.575000
vt 0.600000 0.625000
vt 0.580000 0.625000
vt 0.460000 0.775000
vt 0.440000 0.775000
vt 0.460000 0.775000
vt 0.480000 0.775000
vt 0.480000 0.625000
vt 0.460000 0.625000
vt 0.320000 0.575000
vt 0.320000 0.625000
vt 0.720000 0.600000
vt 0.730000 0.600000
vt 0.730000 0.637500
vt 0.720000 0.637500
vt 0.850000 0.600000
vt 0.860000 0.600000
vt 0.860000 0.637500
vt 0.850000 0.637500
vt 0.730000 0.787500
vt 0.720000 0.787500
vt 0.730000 0.787500
vt 0.740000 0.787500
vt 0.740000 0.637500
vt 0.730000 0.637500
vt 0.600000 0.600000
vt 0.600000 0.637500
vt 0.470000 0.250000
vt 0.720000 0.250000
vt 0.720000 0.375000
vt 0.470000 0.375000
vt 0.390000 0.450000
vt 0.540000 0.450000
vt 0.540000 0.512500
vt 0.390000 0.512500
vt 0.690000 0.450000
vt 0.840000 0.450000
vt 0.840000 0.512500
vt 0.690000 0.512500
vn 0.0000 -0.1812 0.9834
vn 0.0000 0.1812 -0.9834
vn 0.0000 0.9834 0.1812
vn 0.0000 -0.9834 -0.1812
vn -1.0000 0.0000 0.0000
vn 1.0000 0.0000 -0.0000
vn 0.0000 -0.0455 0.9990
vn 0.0000 0.0455 -0.9990
vn 0.0000 0.9990 0.0455
vn 0.0000 -0.9990 -0.0455
usemtl Default_OBJ
s off
f 1/1/1 2/2/1 3/3/1 4/4/1
f 5/5/2 6/6/2 7/7/2 8/8/2
f 4/4/3 3/3/3 8/9/3 7/10/3
f 6/11/4 5/12/4 2/13/4 1/14/4
f 6/15/5 1/1/5 4/4/5 7/16/5
f 2/2/6 5/5/6 8/8/6 3/3/6
f 9/17/7 10/18/7 11/19/7 12/20/7
f 13/21/8 14/22/8 15/23/8 16/24/8
f 12/20/9 11/19/9 16/25/9 15/26/9
f 14/27/10 13/28/10 10/29/10 9/30/10
f 14/31/5 9/17/5 12/20/5 15/32/5
f 10/18/6 13/21/6 16/24/6 11/19/6
f 18/33/6 17/34/6 20/35/6 19/36/6
f 22/37/6 21/38/6 24/39/6 23/40/6
f 26/41/6 25/42/6 28/43/6 27/44/6
o Head
v -0.131335 -0.029640 0.380279
v 0.131165 -0.029640 0.380279
v 0.131165 0.311334 0.459250
v -0.131335 0.311334 0.459251
v 0.131165 0.069073 -0.045939
v -0.131335 0.069073 -0.045939
v -0.131335 0.410047 0.033032
v 0.131165 0.410048 0.033032
v -0.153210 -0.063989 0.487060
v 0.153040 -0.063988 0.487060
v 0.153040 0.197689 0.646163
v -0.153210 0.197689 0.646163
v 0.153040 0.049656 0.300148
v -0.153210 0.049656 0.300148
v -0.153210 0.311334 0.459251
v 0.153040 0.311334 0.459250
v -0.131335 -0.000696 0.526231
v 0.131165 -0.000696 0.526231
v 0.131165 -0.131946 0.753563
v -0.131335 -0.131946 0.753563
v 0.131165 0.188747 0.635606
v -0.131335 0.188747 0.635606
v -0.131335 0.057497 0.862938
v 0.131165 0.057497 0.862938
v -0.109897 0.004482 0.517718
v 0.108853 0.004482 0.517718
v 0.108853 -0.160562 0.775690
v -0.109897 -0.160562 0.775690
v 0.108853 0.188747 0.635606
v -0.109897 0.188747 0.635606
v -0.109897 0.023704 0.893578
v 0.108853 0.023704 0.893578
v 0.154864 0.160202 0.958187
v 0.054067 0.063086 0.790080
v 0.076424 -0.054256 0.844463
v 0.177220 0.042859 1.012571
v -0.155034 0.160202 0.958187
v -0.054237 0.063086 0.790080
v -0.076594 -0.054256 0.844463
v -0.177390 0.042859 1.012571
v -0.175085 -0.168975 0.784116
v 0.174915 -0.168975 0.784116
v 0.174915 -0.085881 0.811533
v -0.175085 -0.085881 0.811533
v 0.174915 -0.031893 0.368648
v -0.175085 -0.031893 0.368648
v -0.175085 0.051200 0.396064
v 0.174915 0.051200 0.396064
v 0.135540 0.048374 0.376703
v 0.135540 -0.088707 0.792173
v 0.135540 -0.005614 0.819589
v 0.135540 0.131468 0.404119
v -0.131335 -0.084511 0.807378
v 0.131165 -0.084511 0.807378
v 0.131165 -0.001417 0.834794
v -0.131335 -0.001417 0.834794
v -0.135710 0.048374 0.376703
v -0.135710 -0.088707 0.792173
v -0.135710 -0.005614 0.819589
v -0.135710 0.131468 0.404119
v -0.109460 -0.167604 0.779962
v 0.109290 -0.167604 0.779962
v 0.109290 -0.084511 0.807378
v -0.109460 -0.084511 0.807378
v 0.109290 -0.030523 0.364492
v -0.109460 -0.030523 0.364492
v -0.109460 0.052571 0.391909
v 0.109290 0.052571 0.391909
v 0.108853 0.049745 0.372548
v 0.108853 -0.087337 0.788018
v 0.108853 -0.004243 0.815434
v 0.108853 0.132839 0.399965
v -0.109022 0.049745 0.372548
v -0.109022 -0.087337 0.788018
v -0.109022 -0.004243 0.815434
v -0.109022 0.132839 0.399965
v -0.131335 -0.083139 0.803224
v 0.131165 -0.083139 0.803224
v 0.131165 -0.000046 0.830640
v -0.131335 -0.000046 0.830640
v -0.000085 -0.246354 -0.164022
v -0.000085 0.001488 0.720667
v -0.000085 -0.251280 0.791480
v -0.000085 -0.499123 -0.093210
v 0.000353 0.260512 0.379035
v 0.000353 0.039633 0.650535
v 0.000353 0.175384 0.760975
v 0.000353 0.396262 0.489474
v 0.247544 -0.014456 0.049797
v 0.112653 -0.038197 0.323713
v 0.146137 0.130726 0.354843
v 0.281028 0.154467 0.080928
v -0.247714 -0.014456 0.049797
v -0.112823 -0.038197 0.323713
v -0.146307 0.130726 0.354843
v -0.281198 0.154467 0.080928
v 0.094507 0.063909 0.588291
v 0.133800 0.053914 0.604731
v 0.133800 0.128679 0.650189
v 0.094507 0.138675 0.633749
v 0.172280 0.094740 0.537584
v 0.132989 0.104736 0.521144
v 0.132989 0.179501 0.566602
v 0.172280 0.169505 0.583042
v 0.207082 -0.082977 -0.528827
v 0.135659 -0.081286 0.387141
v 0.148067 0.180921 0.387624
v 0.219489 0.179229 -0.528344
v -0.133970 0.053914 0.604731
v -0.094677 0.063909 0.588291
v -0.094677 0.138675 0.633749
v -0.133970 0.128679 0.650189
v -0.133158 0.104736 0.521144
v -0.172450 0.094740 0.537584
v -0.172450 0.169505 0.583042
v -0.133158 0.179501 0.566602
v -0.207251 -0.082977 -0.528827
v -0.135829 -0.081286 0.387141
v -0.148236 0.180920 0.387624
v -0.219659 0.179229 -0.528344
v -0.000085 0.394895 -0.022032
v -0.000085 0.203228 0.419404
v -0.000085 0.403881 0.506526
v -0.000085 0.595547 0.065090
vt 0.100000 0.537500
vt 0.160000 0.537500
vt 0.160000 0.637500
vt 0.100000 0.637500
vt 0.260000 0.537500
vt 0.320000 0.537500
vt 0.320000 0.637500
vt 0.260000 0.637500
vt 0.160000 0.762500
vt 0.100000 0.762500
vt 0.160000 0.762500
vt 0.220000 0.762500
vt 0.220000 0.637500
vt 0.160000 0.637500
vt 0.000000 0.537500
vt 0.000000 0.637500
vt 0.050000 0.387500
vt 0.120000 0.387500
vt 0.120000 0.475000
vt 0.050000 0.475000
vt 0.170000 0.387500
vt 0.240000 0.387500
vt 0.240000 0.475000
vt 0.170000 0.475000
vt 0.120000 0.537500
vt 0.050000 0.537500
vt 0.120000 0.537500
vt 0.190000 0.537500
vt 0.190000 0.475000
vt 0.120000 0.475000
vt 0.000000 0.387500
vt 0.000000 0.475000
vt 0.050000 0.250000
vt 0.110000 0.250000
vt 0.110000 0.325000
vt 0.050000 0.325000
vt 0.160000 0.250000
vt 0.220000 0.250000
vt 0.220000 0.325000
vt 0.160000 0.325000
vt 0.110000 0.387500
vt 0.050000 0.387500
vt 0.110000 0.387500
vt 0.170000 0.387500
vt 0.170000 0.325000
vt 0.110000 0.325000
vt 0.000000 0.250000
vt 0.000000 0.325000
vt 0.710000 0.100000
vt 0.760000 0.100000
vt 0.760000 0.187500
vt 0.710000 0.187500
vt 0.810000 0.100000
vt 0.860000 0.100000
vt 0.860000 0.187500
vt 0.810000 0.187500
vt 0.760000 0.250000
vt 0.710000 0.250000
vt 0.760000 0.250000
vt 0.810000 0.250000
vt 0.810000 0.187500
vt 0.760000 0.187500
vt 0.660000 0.100000
vt 0.660000 0.187500
vt 0.430000 0.412500
vt 0.480000 0.412500
vt 0.480000 0.450000
vt 0.430000 0.450000
vt 0.430000 0.412500
vt 0.480000 0.412500
vt 0.480000 0.450000
vt 0.430000 0.450000
vt 0.100000 0.100000
vt 0.180000 0.100000
vt 0.180000 0.125000
vt 0.100000 0.125000
vt 0.280000 0.100000
vt 0.360000 0.100000
vt 0.360000 0.125000
vt 0.280000 0.125000
vt 0.180000 0.250000
vt 0.100000 0.250000
vt 0.180000 0.250000
vt 0.260000 0.250000
vt 0.260000 0.125000
vt 0.180000 0.125000
vt 0.000000 0.100000
vt 0.000000 0.125000
vt 0.100000 0.075000
vt 0.200000 0.075000
vt 0.200000 0.100000
vt 0.100000 0.100000
vt -0.000000 0.050000
vt 0.060000 0.050000
vt 0.060000 0.075000
vt -0.000000 0.075000
vt 0.100000 0.075000
vt 0.200000 0.075000
vt 0.200000 0.100000
vt 0.100000 0.100000
vt 0.460000 0.100000
vt 0.510000 0.100000
vt 0.510000 0.125000
vt 0.460000 0.125000
vt 0.610000 0.100000
vt 0.660000 0.100000
vt 0.660000 0.125000
vt 0.610000 0.125000
vt 0.510000 0.250000
vt 0.460000 0.250000
vt 0.510000 0.250000
vt 0.560000 0.250000
vt 0.560000 0.125000
vt 0.510000 0.125000
vt 0.360000 0.100000
vt 0.360000 0.125000
vt 0.300000 0.075000
vt 0.400000 0.075000
vt 0.400000 0.100000
vt 0.300000 0.100000
vt 0.300000 0.075000
vt 0.400000 0.075000
vt 0.400000 0.100000
vt 0.300000 0.100000
vt 0.120000 0.050000
vt 0.180000 0.050000
vt 0.180000 0.075000
vt 0.120000 0.075000
vt 0.690000 0.375000
vt 0.900000 0.375000
vt 0.900000 0.450000
vt 0.690000 0.450000
vt 0.400000 0.525000
vt 0.480000 0.525000
vt 0.480000 0.575000
vt 0.400000 0.575000
vt 0.310000 0.400000
vt 0.380000 0.400000
vt 0.380000 0.450000
vt 0.310000 0.450000
vt 0.310000 0.400000
vt 0.380000 0.400000
vt 0.380000 0.450000
vt 0.310000 0.450000
vt 0.020000 0.637500
vt 0.030000 0.637500
vt 0.030000 0.662500
vt 0.020000 0.662500
vt 0.050000 0.637500
vt 0.060000 0.637500
vt 0.060000 0.662500
vt 0.050000 0.662500
vt 0.030000 0.687500
vt 0.020000 0.687500
vt 0.030000 0.687500
vt 0.040000 0.687500
vt 0.040000 0.662500
vt 0.030000 0.662500
vt 0.000000 0.637500
vt 0.000000 0.662500
vt 0.690000 0.375000
vt 0.900000 0.375000
vt 0.900000 0.450000
vt 0.690000 0.450000
vt 0.030000 0.637500
vt 0.020000 0.637500
vt 0.020000 0.662500
vt 0.030000 0.662500
vt 0.060000 0.637500
vt 0.050000 0.637500
vt 0.050000 0.662500
vt 0.060000 0.662500
vt 0.020000 0.687500
vt 0.030000 0.687500
vt 0.040000 0.687500
vt 0.030000 0.687500
vt 0.030000 0.662500
vt 0.040000 0.662500
vt 0.000000 0.637500
vt 0.000000 0.662500
vt 0.690000 0.375000
vt 0.900000 0.375000
vt 0.900000 0.450000
vt 0.690000 0.450000
vt 0.590000 0.512500
vt 0.700000 0.512500
vt 0.700000 0.575000
vt 0.590000 0.575000
vn 0.0000 -0.2256 0.9742
vn -0.0000 0.2256 -0.9742
vn -0.0000 0.9742 0.2256
vn -0.0000 -0.9742 -0.2256
vn -1.0000 -0.0000 0.0000
vn 1.0000 0.0000 -0.0000
vn 0.0000 -0.5195 0.8545
vn -0.0000 0.5195 -0.8545
vn 0.0000 0.8545 0.5195
vn 0.0000 -0.8545 -0.5195
vn 0.0000 -0.8660 -0.5000
vn 0.0000 0.8660 0.5000
vn 0.0000 -0.5000 0.8660
vn -0.0000 0.5000 -0.8660
vn -0.0000 -0.8424 -0.5389
vn 0.0000 0.8424 0.5389
vn 0.0000 -0.5389 0.8424
vn 0.0000 0.5389 -0.8424
vn 0.8710 -0.0600 -0.4876
vn 0.8710 0.0600 0.4876
vn 0.0000 -0.3133 0.9496
vn -0.0000 0.3133 -0.9496
vn 0.0000 0.9496 0.3133
vn 0.0000 -0.9496 -0.3133
vn 0.8771 -0.2495 0.4103
vn 0.8771 0.2495 -0.4103
vn -0.4398 -0.4666 0.7674
vn 0.4398 0.4666 -0.7674
vn -0.8981 0.2285 -0.3758
vn 0.8981 -0.2285 0.3758
vn 0.9959 -0.0473 0.0777
vn 0.4398 -0.4666 0.7674
vn -0.4398 0.4666 -0.7674
vn -0.8981 -0.2285 0.3758
vn 0.8981 0.2285 -0.3758
vn 0.9959 0.0473 -0.0777
usemtl Default_OBJ
s off
f 29/45/11 30/46/11 31/47/11 32/48/11
f 33/49/12 34/50/12 35/51/12 36/52/12
f 32/48/13 31/47/13 36/53/13 35/54/13
f 34/55/14 33/56/14 30/57/14 29/58/14
f 34/59/15 29/45/15 32/48/15 35/60/15
f 30/46/16 33/49/16 36/52/16 31/47/16
f 37/61/17 38/62/17 39/63/17 40/64/17
f 41/65/18 42/66/18 43/67/18 44/68/18
f 40/64/19 39/63/19 44/69/19 43/70/19
f 42/71/20 41/72/20 38/73/20 37/74/20
f 42/75/15 37/61/15 40/64/15 43/76/15
f 38/62/16 41/65/16 44/68/16 39/63/16
f 45/77/21 46/78/21 47/79/21 48/80/21
f 49/81/22 50/82/22 51/83/22 52/84/22
f 48/80/23 47/79/23 52/85/23 51/86/23
f 50/87/24 49/88/24 46/89/24 45/90/24
f 50/91/15 45/77/15 48/80/15 51/92/15
f 46/78/16 49/81/16 52/84/16 47/79/16
f 53/93/25 54/94/25 55/95/25 56/96/25
f 57/97/26 58/98/26 59/99/26 60/100/26
f 56/96/27 55/95/27 60/101/27 59/102/27
f 58/103/28 57/104/28 54/105/28 53/106/28
f 58/107/15 53/93/15 56/96/15 59/108/15
f 54/94/16 57/97/16 60/100/16 55/95/16
f 62/109/29 61/110/29 64/111/29 63/112/29
f 66/113/30 65/114/30 68/115/30 67/116/30
f 69/117/31 70/118/31 71/119/31 72/120/31
f 73/121/32 74/122/32 75/123/32 76/124/32
f 72/120/33 71/119/33 76/125/33 75/126/33
f 74/127/34 73/128/34 70/129/34 69/130/34
f 74/131/15 69/117/15 72/120/15 75/132/15
f 70/118/16 73/121/16 76/124/16 71/119/16
f 78/133/16 77/134/16 80/135/16 79/136/16
f 82/137/32 81/138/32 84/139/32 83/140/32
f 86/141/16 85/142/16 88/143/16 87/144/16
f 89/145/31 90/146/31 91/147/31 92/148/31
f 93/149/32 94/150/32 95/151/32 96/152/32
f 92/148/33 91/147/33 96/153/33 95/154/33
f 94/155/34 93/156/34 90/157/34 89/158/34
f 94/159/15 89/145/15 92/148/15 95/160/15
f 90/146/16 93/149/16 96/152/16 91/147/16
f 98/161/16 97/162/16 100/163/16 99/164/16
f 102/165/16 101/166/16 104/167/16 103/168/16
f 106/169/32 105/170/32 108/171/32 107/172/32
f 110/173/15 109/174/15 112/175/15 111/176/15
f 114/177/16 113/178/16 116/179/16 115/180/16
f 118/181/35 117/182/35 120/183/35 119/184/35
f 122/185/36 121/186/36 124/187/36 123/188/36
f 125/189/37 126/190/37 127/191/37 128/192/37
f 129/193/38 130/194/38 131/195/38 132/196/38
f 128/192/19 127/191/19 132/197/19 131/198/19
f 130/199/20 129/200/20 126/201/20 125/202/20
f 130/203/39 125/189/39 128/192/39 131/204/39
f 126/190/40 129/193/40 132/196/40 127/191/40
f 134/205/41 133/206/41 136/207/41 135/208/41
f 137/209/42 138/210/42 139/211/42 140/212/42
f 141/213/43 142/214/43 143/215/43 144/216/43
f 140/212/19 139/211/19 144/217/19 143/218/19
f 142/219/20 141/220/20 138/221/20 137/222/20
f 142/214/44 137/209/44 140/212/44 143/215/44
f 138/210/45 141/223/45 144/224/45 139/211/45
f 146/225/46 145/226/46 148/227/46 147/228/46
f 150/229/16 149/230/16 152/231/16 151/232/16
o Body
v -0.109460 0.098034 0.048077
v 0.109290 0.098034 0.048077
v 0.109290 0.403967 0.034131
v -0.109460 0.403967 0.034131
v 0.109290 0.074126 -0.476379
v -0.109460 0.074126 -0.476379
v -0.109460 0.380059 -0.490324
v 0.109290 0.380059 -0.490324
v -0.087585 0.109099 -0.411115
v 0.087415 0.109099 -0.411115
v 0.087415 0.364830 -0.470344
v -0.087585 0.364830 -0.470344
v 0.087415 -0.009358 -0.922577
v -0.087585 -0.009358 -0.922577
v -0.087585 0.246373 -0.981805
v 0.087415 0.246373 -0.981805
v -0.000085 0.184009 -1.057178
v -0.000085 0.332079 -0.417850
v -0.000085 0.545189 -0.467207
v -0.000085 0.397118 -1.106535
v -0.000085 -0.204728 -0.933141
v -0.000085 0.056636 -0.331183
v -0.000085 0.257288 -0.418305
v -0.000085 -0.004076 -1.020262
v 0.000352 0.332370 -0.575742
v 0.000353 0.362254 0.079828
v 0.000353 0.580777 0.069867
v 0.000352 0.550893 -0.585703
v 0.000352 -0.119477 -0.504640
v 0.000353 0.086146 0.118565
v 0.000353 0.293880 0.050023
v 0.000352 0.088257 -0.573180
vt 0.120000 0.762500
vt 0.170000 0.762500
vt 0.170000 0.850000
vt 0.120000 0.850000
vt 0.290000 0.762500
vt 0.340000 0.762500
vt 0.340000 0.850000
vt 0.290000 0.850000
vt 0.170000 1.000000
vt 0.120000 1.000000
vt 0.170000 1.000000
vt 0.220000 1.000000
vt 0.220000 0.850000
vt 0.170000 0.850000
vt 0.000000 0.762500
vt 0.000000 0.850000
vt 0.460000 0.775000
vt 0.500000 0.775000
vt 0.500000 0.850000
vt 0.460000 0.850000
vt 0.620000 0.775000
vt 0.660000 0.775000
vt 0.660000 0.850000
vt 0.620000 0.850000
vt 0.500000 1.000000
vt 0.460000 1.000000
vt 0.500000 1.000000
vt 0.540000 1.000000
vt 0.540000 0.850000
vt 0.500000 0.850000
vt 0.340000 0.775000
vt 0.340000 0.850000
vt 0.390000 0.450000
vt 0.540000 0.450000
vt 0.540000 0.512500
vt 0.390000 0.512500
vt 0.690000 0.450000
vt 0.840000 0.450000
vt 0.840000 0.512500
vt 0.690000 0.512500
vt 0.390000 0.450000
vt 0.540000 0.450000
vt 0.540000 0.512500
vt 0.390000 0.512500
vt 0.690000 0.450000
vt 0.840000 0.450000
vt 0.840000 0.512500
vt 0.690000 0.512500
vn 0.0000 0.0455 0.9990
vn 0.0000 -0.0455 -0.9990
vn 0.0000 0.9990 -0.0455
vn 0.0000 -0.9990 0.0455
vn -1.0000 0.0000 0.0000
vn 1.0000 0.0000 -0.0000
vn 0.0000 0.2256 0.9742
vn -0.0000 -0.2256 -0.9742
vn 0.0000 0.9742 -0.2256
vn 0.0000 -0.9742 0.2256
usemtl Default_OBJ
s off
f 153/233/47 154/234/47 155/235/47 156/236/47
f 157/237/48 158/238/48 159/239/48 160/240/48
f 156/236/49 155/235/49 160/241/49 159/242/49
f 158/243/50 157/244/50 154/245/50 153/246/50
f 158/247/51 153/233/51 156/236/51 159/248/51
f 154/234/52 157/237/52 160/240/52 155/235/52
f 161/249/53 162/250/53 163/251/53 164/252/53
f 165/253/54 166/254/54 167/255/54 168/256/54
f 164/252/55 163/251/55 168/257/55 167/258/55
f 166/259/56 165/260/56 162/261/56 161/262/56
f 166/263/51 161/249/51 164/252/51 167/264/51
f 162/250/52 165/253/52 168/256/52 163/251/52
f 170/265/52 169/266/52 172/267/52 171/268/52
f 174/269/52 173/270/52 176/271/52 175/272/52
f 178/273/52 177/274/52 180/275/52 179/276/52
f 182/277/52 181/278/52 184/279/52 183/280/52
o Tail01
v -0.065710 0.013084 -0.901639
v 0.065540 0.013084 -0.901639
v 0.065540 0.230930 -0.921503
v -0.065710 0.230930 -0.921503
v 0.065540 -0.034590 -1.424470
v -0.065710 -0.034590 -1.424470
v -0.065710 0.183256 -1.444334
v 0.065540 0.183256 -1.444334
v 0.000352 0.131742 -1.527500
v 0.000352 0.191334 -0.873961
v 0.000352 0.409180 -0.893825
v 0.000352 0.349588 -1.547364
v 0.000352 -0.222539 -1.478844
v 0.000352 -0.103735 -0.833437
v 0.000352 0.111401 -0.873038
v 0.000352 -0.007403 -1.518445
vt 0.780000 0.787500
vt 0.810000 0.787500
vt 0.810000 0.850000
vt 0.780000 0.850000
vt 0.930000 0.787500
vt 0.960000 0.787500
vt 0.960000 0.850000
vt 0.930000 0.850000
vt 0.810000 1.000000
vt 0.780000 1.000000
vt 0.810000 1.000000
vt 0.840000 1.000000
vt 0.840000 0.850000
vt 0.810000 0.850000
vt 0.660000 0.787500
vt 0.660000 0.850000
vt 0.390000 0.450000
vt 0.540000 0.450000
vt 0.540000 0.512500
vt 0.390000 0.512500
vt 0.690000 0.450000
vt 0.840000 0.450000
vt 0.840000 0.512500
vt 0.690000 0.512500
vn 0.0000 0.0908 0.9959
vn 0.0000 -0.0908 -0.9959
vn 0.0000 0.9959 -0.0908
vn 0.0000 -0.9959 0.0908
vn -1.0000 -0.0000 0.0000
vn 1.0000 0.0000 -0.0000
usemtl Default_OBJ
s off
f 185/281/57 186/282/57 187/283/57 188/284/57
f 189/285/58 190/286/58 191/287/58 192/288/58
f 188/284/59 187/283/59 192/289/59 191/290/59
f 190/291/60 189/292/60 186/293/60 185/294/60
f 190/295/61 185/281/61 188/284/61 191/296/61
f 186/282/62 189/285/62 192/288/62 187/283/62
f 194/297/62 193/298/62 196/299/62 195/300/62
f 198/301/62 197/302/62 200/303/62 199/304/62
