# Blender v2.82 (sub 7) OBJ File: 'aegis.blend'
# www.blender.org
mtllib aegis.mtl
o Body
v -0.406250 0.717500 0.322500
v 0.406250 0.717500 0.322500
v 0.406250 1.342500 0.322500
v -0.406250 1.342500 0.322500
v 0.406250 0.717500 -0.302500
v -0.406250 0.717500 -0.302500
v -0.406250 1.342500 -0.302500
v 0.406250 1.342500 -0.302500
v -0.312500 0.467500 0.260000
v 0.312500 0.467500 0.260000
v 0.312500 0.780000 0.260000
v -0.312500 0.780000 0.260000
v 0.312500 0.467500 -0.240000
v -0.312500 0.467500 -0.240000
v -0.312500 0.780000 -0.240000
v 0.312500 0.780000 -0.240000
vt 0.078125 0.687500
vt 0.179688 0.687500
vt 0.179688 0.843750
vt 0.078125 0.843750
vt 0.257812 0.687500
vt 0.359375 0.687500
vt 0.359375 0.843750
vt 0.257812 0.843750
vt 0.179688 1.000000
vt 0.078125 1.000000
vt 0.179688 1.000000
vt 0.281250 1.000000
vt 0.281250 0.843750
vt 0.179688 0.843750
vt -0.000000 0.687500
vt -0.000000 0.843750
vt 0.062500 0.484375
vt 0.140625 0.484375
vt 0.140625 0.562500
vt 0.062500 0.562500
vt 0.203125 0.484375
vt 0.281250 0.484375
vt 0.281250 0.562500
vt 0.203125 0.562500
vt 0.140625 0.687500
vt 0.062500 0.687500
vt 0.140625 0.687500
vt 0.218750 0.687500
vt 0.218750 0.562500
vt 0.140625 0.562500
vt -0.000000 0.484375
vt -0.000000 0.562500
vn 0.0000 0.0000 1.0000
vn 0.0000 -0.0000 -1.0000
vn 0.0000 1.0000 -0.0000
vn 0.0000 -1.0000 0.0000
vn -1.0000 0.0000 0.0000
vn 1.0000 0.0000 -0.0000
usemtl Default_OBJ
s off
f 1/1/1 2/2/1 3/3/1 4/4/1
f 5/5/2 6/6/2 7/7/2 8/8/2
f 4/4/3 3/3/3 8/9/3 7/10/3
f 6/11/4 5/12/4 2/13/4 1/14/4
f 6/15/5 1/1/5 4/4/5 7/16/5
f 2/2/6 5/5/6 8/8/6 3/3/6
f 9/17/1 10/18/1 11/19/1 12/20/1
f 13/21/2 14/22/2 15/23/2 16/24/2
f 12/20/3 11/19/3 16/25/3 15/26/3
f 14/27/4 13/28/4 10/29/4 9/30/4
f 14/31/5 9/17/5 12/20/5 15/32/5
f 10/18/6 13/21/6 16/24/6 11/19/6
o Head
v -0.156250 1.342500 0.303750
v 0.156250 1.342500 0.303750
v 0.156250 1.717500 0.303750
v -0.156250 1.717500 0.303750
v 0.156250 1.342500 -0.008750
v -0.156250 1.342500 -0.008750
v -0.156250 1.717500 -0.008750
v 0.156250 1.717500 -0.008750
vt 0.570312 0.531250
vt 0.609375 0.531250
vt 0.609375 0.625000
vt 0.570312 0.625000
vt 0.648438 0.531250
vt 0.687500 0.531250
vt 0.687500 0.625000
vt 0.648438 0.625000
vt 0.609375 0.703125
vt 0.570312 0.703125
vt 0.609375 0.703125
vt 0.648438 0.703125
vt 0.648438 0.625000
vt 0.609375 0.625000
vt 0.531250 0.531250
vt 0.531250 0.625000
vn 0.0000 0.0000 1.0000
vn -0.0000 -0.0000 -1.0000
vn 0.0000 1.0000 -0.0000
vn 0.0000 -1.0000 0.0000
vn -1.0000 -0.0000 0.0000
vn 1.0000 0.0000 -0.0000
usemtl Default_OBJ
s off
f 17/33/7 18/34/7 19/35/7 20/36/7
f 21/37/8 22/38/8 23/39/8 24/40/8
f 20/36/9 19/35/9 24/41/9 23/42/9
f 22/43/10 21/44/10 18/45/10 17/46/10
f 22/47/11 17/33/11 20/36/11 23/48/11
f 18/34/12 21/37/12 24/40/12 19/35/12
o Helm
v -0.187500 1.248750 0.360000
v 0.187500 1.248750 0.360000
v 0.187500 1.748750 0.360000
v -0.187500 1.748750 0.360000
v 0.187500 1.248750 -0.015000
v -0.187500 1.248750 -0.015000
v -0.187500 1.748750 -0.015000
v 0.187500 1.748750 -0.015000
v 0.125000 1.579057 0.191200
v 0.375000 1.579057 0.191200
v 0.375000 1.623750 0.234890
v 0.125000 1.623750 0.234890
v 0.375000 1.884887 -0.121649
v 0.125000 1.884887 -0.121649
v 0.125000 1.929580 -0.077959
v 0.375000 1.929580 -0.077959
v -0.375000 1.579057 0.191200
v -0.125000 1.579057 0.191200
v -0.125000 1.623750 0.234890
v -0.375000 1.623750 0.234890
v -0.125000 1.884887 -0.121649
v -0.375000 1.884887 -0.121649
v -0.375000 1.929580 -0.077959
v -0.125000 1.929580 -0.077959
v -0.000000 1.571899 -0.082894
v -0.000000 1.748147 0.451281
v -0.000000 2.104263 0.333783
v -0.000000 1.928015 -0.200392
vt 0.578125 0.312500
vt 0.625000 0.312500
vt 0.625000 0.437500
vt 0.578125 0.437500
vt 0.671875 0.312500
vt 0.718750 0.312500
vt 0.718750 0.437500
vt 0.671875 0.437500
vt 0.625000 0.531250
vt 0.578125 0.531250
vt 0.625000 0.531250
vt 0.671875 0.531250
vt 0.671875 0.437500
vt 0.625000 0.437500
vt 0.531250 0.312500
vt 0.531250 0.437500
vt 0.054688 0.265625
vt 0.085938 0.265625
vt 0.085938 0.281250
vt 0.054688 0.281250
vt 0.140625 0.265625
vt 0.171875 0.265625
vt 0.171875 0.281250
vt 0.140625 0.281250
vt 0.085938 0.390625
vt 0.054688 0.390625
vt 0.085938 0.390625
vt 0.117188 0.390625
vt 0.117188 0.281250
vt 0.085938 0.281250
vt -0.000000 0.265625
vt -0.000000 0.281250
vt 0.085938 0.265625
vt 0.054688 0.265625
vt 0.054688 0.281250
vt 0.085938 0.281250
vt 0.171875 0.265625
vt 0.140625 0.265625
vt 0.140625 0.281250
vt 0.171875 0.281250
vt 0.054688 0.390625
vt 0.085938 0.390625
vt 0.117188 0.390625
vt 0.085938 0.390625
vt 0.085938 0.281250
vt 0.117188 0.281250
vt -0.000000 0.265625
vt -0.000000 0.281250
vt 0.492188 0.218750
vt 0.562500 0.218750
vt 0.562500 0.312500
vt 0.492188 0.312500
vn 0.0000 0.0000 1.0000
vn -0.0000 -0.0000 -1.0000
vn -0.0000 1.0000 0.0000
vn 0.0000 -1.0000 0.0000
vn -1.0000 0.0000 0.0000
vn 1.0000 -0.0000 -0.0000
vn 0.0000 -0.6990 0.7151
vn -0.0000 0.6990 -0.7151
vn 0.0000 0.7151 0.6990
vn -0.0000 -0.7151 -0.6990
usemtl Default_OBJ
s off
f 25/49/13 26/50/13 27/51/13 28/52/13
f 29/53/14 30/54/14 31/55/14 32/56/14
f 28/52/15 27/51/15 32/57/15 31/58/15
f 30/59/16 29/60/16 26/61/16 25/62/16
f 30/63/17 25/49/17 28/52/17 31/64/17
f 26/50/18 29/53/18 32/56/18 27/51/18
f 33/65/19 34/66/19 35/67/19 36/68/19
f 37/69/20 38/70/20 39/71/20 40/72/20
f 36/68/21 35/67/21 40/73/21 39/74/21
f 38/75/22 37/76/22 34/77/22 33/78/22
f 38/79/17 33/65/17 36/68/17 39/80/17
f 34/66/18 37/69/18 40/72/18 35/67/18
f 41/81/19 42/82/19 43/83/19 44/84/19
f 45/85/20 46/86/20 47/87/20 48/88/20
f 44/84/21 43/83/21 48/89/21 47/90/21
f 46/91/22 45/92/22 42/93/22 41/94/22
f 46/86/17 41/81/17 44/84/17 47/87/17
f 42/82/18 45/95/18 48/96/18 43/83/18
f 50/97/18 49/98/18 52/99/18 51/100/18
o ShieldUpperLeft01
v 0.022745 1.062287 0.760000
v 0.582912 1.113463 0.760000
v 0.560167 1.362426 0.760000
v 0.000000 1.311250 0.760000
v 0.582912 1.113463 0.635000
v 0.022745 1.062287 0.635000
v 0.000000 1.311250 0.635000
v 0.560167 1.362426 0.635000
v 0.334397 0.294248 0.383229
v 0.466979 0.294248 0.250646
v 0.503104 0.665752 0.286771
v 0.370521 0.665752 0.419354
vt 0.015625 0.390625
vt 0.085938 0.390625
vt 0.085938 0.453125
vt 0.015625 0.453125
vt 0.101562 0.390625
vt 0.171875 0.390625
vt 0.171875 0.453125
vt 0.101562 0.453125
vt 0.085938 0.484375
vt 0.015625 0.484375
vt 0.085938 0.484375
vt 0.156250 0.484375
vt 0.156250 0.453125
vt 0.085938 0.453125
vt -0.000000 0.390625
vt -0.000000 0.453125
vt 0.023438 0.906250
vt -0.000000 0.906250
vt -0.000000 1.000000
vt 0.023438 1.000000
vn 0.0000 0.0000 1.0000
vn -0.0000 -0.0000 -1.0000
vn -0.0910 0.9959 -0.0000
vn 0.0910 -0.9959 0.0000
vn -0.9959 -0.0910 0.0000
vn 0.9959 0.0910 0.0000
vn -0.7005 0.1362 -0.7005
usemtl Default_OBJ
s off
f 53/101/23 54/102/23 55/103/23 56/104/23
f 57/105/24 58/106/24 59/107/24 60/108/24
f 56/104/25 55/103/25 60/109/25 59/110/25
f 58/111/26 57/112/26 54/113/26 53/114/26
f 58/115/27 53/101/27 56/104/27 59/116/27
f 54/102/28 57/105/28 60/108/28 55/103/28
f 62/117/29 61/118/29 64/119/29 63/120/29
o ShieldUpperLeft02
v -0.582912 1.113463 -0.615000
v -0.022745 1.062287 -0.615000
v -0.000000 1.311250 -0.615000
v -0.560167 1.362426 -0.615000
v -0.022745 1.062287 -0.740000
v -0.582912 1.113463 -0.740000
v -0.560167 1.362426 -0.740000
v -0.000000 1.311250 -0.740000
v -0.466979 0.294248 -0.230646
v -0.334396 0.294248 -0.363229
v -0.370521 0.665752 -0.399354
v -0.503103 0.665752 -0.266771
vt 0.085938 0.390625
vt 0.015625 0.390625
vt 0.015625 0.453125
vt 0.085938 0.453125
vt 0.171875 0.390625
vt 0.101562 0.390625
vt 0.101562 0.453125
vt 0.171875 0.453125
vt 0.015625 0.484375
vt 0.085938 0.484375
vt 0.156250 0.484375
vt 0.085938 0.484375
vt 0.085938 0.453125
vt 0.156250 0.453125
vt -0.000000 0.390625
vt -0.000000 0.453125
vt -0.000000 0.906250
vt 0.023438 0.906250
vt 0.023438 1.000000
vt -0.000000 1.000000
vn 0.0000 -0.0000 1.0000
vn -0.0000 0.0000 -1.0000
vn 0.0910 0.9959 0.0000
vn -0.0910 -0.9959 0.0000
vn -0.9959 0.0910 0.0000
vn 0.9959 -0.0910 -0.0000
vn -0.7005 -0.1362 -0.7005
usemtl Default_OBJ
s off
f 65/121/30 66/122/30 67/123/30 68/124/30
f 69/125/31 70/126/31 71/127/31 72/128/31
f 68/124/32 67/123/32 72/129/32 71/130/32
f 70/131/33 69/132/33 66/133/33 65/134/33
f 70/126/34 65/121/34 68/124/34 71/127/34
f 66/122/35 69/135/35 72/136/35 67/123/35
f 74/137/36 73/138/36 76/139/36 75/140/36
o ShieldUpperRight01
v -0.582912 1.113463 0.760000
v -0.022745 1.062287 0.760000
v 0.000000 1.311250 0.760000
v -0.560167 1.362426 0.760000
v -0.022745 1.062287 0.635000
v -0.582912 1.113463 0.635000
v -0.560167 1.362426 0.635000
v 0.000000 1.311250 0.635000
v -0.466979 0.294248 0.250646
v -0.334396 0.294248 0.383229
v -0.370521 0.665752 0.419354
v -0.503103 0.665752 0.286771
vt 0.085938 0.390625
vt 0.015625 0.390625
vt 0.015625 0.453125
vt 0.085938 0.453125
vt 0.171875 0.390625
vt 0.101562 0.390625
vt 0.101562 0.453125
vt 0.171875 0.453125
vt 0.015625 0.484375
vt 0.085938 0.484375
vt 0.156250 0.484375
vt 0.085938 0.484375
vt 0.085938 0.453125
vt 0.156250 0.453125
vt -0.000000 0.390625
vt -0.000000 0.453125
vt -0.000000 0.906250
vt 0.023438 0.906250
vt 0.023438 1.000000
vt -0.000000 1.000000
vn 0.0000 -0.0000 1.0000
vn -0.0000 0.0000 -1.0000
vn 0.0910 0.9959 -0.0000
vn -0.0910 -0.9959 0.0000
vn -0.9959 0.0910 0.0000
vn 0.9959 -0.0910 -0.0000
vn 0.7005 0.1362 -0.7005
usemtl Default_OBJ
s off
f 77/141/37 78/142/37 79/143/37 80/144/37
f 81/145/38 82/146/38 83/147/38 84/148/38
f 80/144/39 79/143/39 84/149/39 83/150/39
f 82/151/40 81/152/40 78/153/40 77/154/40
f 82/146/41 77/141/41 80/144/41 83/147/41
f 78/142/42 81/155/42 84/156/42 79/143/42
f 86/157/43 85/158/43 88/159/43 87/160/43
o ShieldUpperRight02
v 0.022745 1.062287 -0.615000
v 0.582912 1.113463 -0.615000
v 0.560167 1.362426 -0.615000
v -0.000000 1.311250 -0.615000
v 0.582912 1.113463 -0.740000
v 0.022745 1.062287 -0.740000
v -0.000000 1.311250 -0.740000
v 0.560167 1.362426 -0.740000
v 0.334397 0.294248 -0.363229
v 0.466979 0.294248 -0.230646
v 0.503104 0.665752 -0.266771
v 0.370521 0.665752 -0.399354
vt 0.015625 0.390625
vt 0.085938 0.390625
vt 0.085938 0.453125
vt 0.015625 0.453125
vt 0.101562 0.390625
vt 0.171875 0.390625
vt 0.171875 0.453125
vt 0.101562 0.453125
vt 0.085938 0.484375
vt 0.015625 0.484375
vt 0.085938 0.484375
vt 0.156250 0.484375
vt 0.156250 0.453125
vt 0.085938 0.453125
vt -0.000000 0.390625
vt -0.000000 0.453125
vt 0.023438 0.906250
vt -0.000000 0.906250
vt -0.000000 1.000000
vt 0.023438 1.000000
vn 0.0000 0.0000 1.0000
vn -0.0000 -0.0000 -1.0000
vn -0.0910 0.9959 0.0000
vn 0.0910 -0.9959 0.0000
vn -0.9959 -0.0910 0.0000
vn 0.9959 0.0910 0.0000
vn 0.7005 -0.1362 -0.7005
usemtl Default_OBJ
s off
f 89/161/44 90/162/44 91/163/44 92/164/44
f 93/165/45 94/166/45 95/167/45 96/168/45
f 92/164/46 91/163/46 96/169/46 95/170/46
f 94/171/47 93/172/47 90/173/47 89/174/47
f 94/175/48 89/161/48 92/164/48 95/176/48
f 90/162/49 93/165/49 96/168/49 91/163/49
f 98/177/50 97/178/50 100/179/50 99/180/50
o Shoulders
v -0.468750 0.873750 0.353750
v 0.468750 0.873750 0.353750
v 0.468750 1.373750 0.353750
v -0.468750 1.373750 0.353750
v 0.468750 0.873750 -0.333750
v -0.468750 0.873750 -0.333750
v -0.468750 1.373750 -0.333750
v 0.468750 1.373750 -0.333750
v 0.107759 1.127881 0.260000
v 0.538030 1.207083 0.260000
v 0.492771 1.452952 0.260000
v 0.062500 1.373750 0.260000
v 0.538030 1.207083 -0.240000
v 0.107759 1.127881 -0.240000
v 0.062500 1.373750 -0.240000
v 0.492771 1.452952 -0.240000
v -0.538030 1.207083 0.260000
v -0.107759 1.127881 0.260000
v -0.062500 1.373750 0.260000
v -0.492771 1.452952 0.260000
v -0.107759 1.127881 -0.240000
v -0.538030 1.207083 -0.240000
v -0.492771 1.452952 -0.240000
v -0.062500 1.373750 -0.240000
v -0.093750 0.411509 -0.326384
v 0.093750 0.411509 -0.326384
v 0.093750 0.848556 -0.306462
v -0.093750 0.848555 -0.306462
v -0.093750 0.411509 0.346384
v 0.093750 0.411509 0.346384
v 0.093750 0.848556 0.326462
v -0.093750 0.848555 0.326462
vt 0.445312 0.703125
vt 0.562500 0.703125
vt 0.562500 0.828125
vt 0.445312 0.828125
vt 0.648438 0.703125
vt 0.765625 0.703125
vt 0.765625 0.828125
vt 0.648438 0.828125
vt 0.562500 1.000000
vt 0.445312 1.000000
vt 0.562500 1.000000
vt 0.679688 1.000000
vt 0.679688 0.828125
vt 0.562500 0.828125
vt 0.359375 0.703125
vt 0.359375 0.828125
vt 0.359375 0.515625
vt 0.414062 0.515625
vt 0.414062 0.578125
vt 0.359375 0.578125
vt 0.476562 0.515625
vt 0.531250 0.515625
vt 0.531250 0.578125
vt 0.476562 0.578125
vt 0.414062 0.703125
vt 0.359375 0.703125
vt 0.414062 0.703125
vt 0.468750 0.703125
vt 0.468750 0.578125
vt 0.414062 0.578125
vt 0.296875 0.515625
vt 0.296875 0.578125
vt 0.414062 0.515625
vt 0.359375 0.515625
vt 0.359375 0.578125
vt 0.414062 0.578125
vt 0.531250 0.515625
vt 0.476562 0.515625
vt 0.476562 0.578125
vt 0.531250 0.578125
vt 0.359375 0.703125
vt 0.414062 0.703125
vt 0.468750 0.578125
vt 0.414062 0.578125
vt 0.414062 0.703125
vt 0.468750 0.703125
vt 0.296875 0.515625
vt 0.296875 0.578125
vt 0.304688 0.890625
vt 0.281250 0.890625
vt 0.281250 1.000000
vt 0.304688 1.000000
vt 0.304688 0.890625
vt 0.281250 0.890625
vt 0.281250 1.000000
vt 0.304688 1.000000
vn 0.0000 0.0000 1.0000
vn -0.0000 -0.0000 -1.0000
vn -0.0000 1.0000 -0.0000
vn 0.0000 -1.0000 0.0000
vn -1.0000 0.0000 0.0000
vn 1.0000 0.0000 -0.0000
vn -0.1810 0.9835 -0.0000
vn 0.1810 -0.9835 0.0000
vn -0.9835 -0.1810 0.0000
vn 0.9835 0.1810 -0.0000
vn 0.1810 0.9835 -0.0000
vn -0.1810 -0.9835 0.0000
vn -0.9835 0.1810 -0.0000
vn 0.9835 -0.1810 0.0000
vn -0.0000 0.0455 -0.9990
vn 0.0000 -0.0455 -0.9990
usemtl Default_OBJ
s off
f 101/181/51 102/182/51 103/183/51 104/184/51
f 105/185/52 106/186/52 107/187/52 108/188/52
f 104/184/53 103/183/53 108/189/53 107/190/53
f 106/191/54 105/192/54 102/193/54 101/194/54
f 106/195/55 101/181/55 104/184/55 107/196/55
f 102/182/56 105/185/56 108/188/56 103/183/56
f 109/197/51 110/198/51 111/199/51 112/200/51
f 113/201/52 114/202/52 115/203/52 116/204/52
f 112/200/57 111/199/57 116/205/57 115/206/57
f 114/207/58 113/208/58 110/209/58 109/210/58
f 114/211/59 109/197/59 112/200/59 115/212/59
f 110/198/60 113/201/60 116/204/60 111/199/60
f 117/213/51 118/214/51 119/215/51 120/216/51
f 121/217/52 122/218/52 123/219/52 124/220/52
f 120/216/61 119/215/61 124/221/61 123/222/61
f 122/223/62 121/224/62 118/225/62 117/226/62
f 122/218/63 117/213/63 120/216/63 123/219/63
f 118/214/64 121/227/64 124/228/64 119/215/64
f 126/229/65 125/230/65 128/231/65 127/232/65
f 130/233/66 129/234/66 132/235/66 131/236/66
o ShieldLowerLeft01
v 0.031250 0.436250 0.728640
v 0.406250 0.436250 0.728640
v 0.406250 1.311250 0.728640
v 0.031250 1.311250 0.728640
v 0.406250 0.436250 0.666140
v 0.031250 0.436250 0.666140
v 0.031250 1.311250 0.666140
v 0.406250 1.311250 0.666140
v 0.000000 0.186250 0.697390
v 0.562500 0.186250 0.697390
v 0.562500 1.373750 0.697390
v 0.000000 1.373750 0.697390
vt 0.179688 0.250000
vt 0.226562 0.250000
vt 0.226562 0.468750
vt 0.179688 0.468750
vt 0.234375 0.250000
vt 0.281250 0.250000
vt 0.281250 0.468750
vt 0.234375 0.468750
vt 0.226562 0.484375
vt 0.179688 0.484375
vt 0.226562 0.484375
vt 0.273438 0.484375
vt 0.273438 0.468750
vt 0.226562 0.468750
vt 0.171875 0.250000
vt 0.171875 0.468750
vt 0.351562 0.218750
vt 0.281250 0.218750
vt 0.281250 0.515625
vt 0.351562 0.515625
vn 0.0000 0.0000 1.0000
vn 0.0000 -0.0000 -1.0000
vn 0.0000 1.0000 0.0000
vn 0.0000 -1.0000 0.0000
vn -1.0000 0.0000 0.0000
vn 1.0000 0.0000 0.0000
usemtl Default_OBJ
s off
f 133/237/67 134/238/67 135/239/67 136/240/67
f 137/241/68 138/242/68 139/243/68 140/244/68
f 136/240/69 135/239/69 140/245/69 139/246/69
f 138/247/70 137/248/70 134/249/70 133/250/70
f 138/251/71 133/237/71 136/240/71 139/252/71
f 134/238/72 137/241/72 140/244/72 135/239/72
f 142/253/68 141/254/68 144/255/68 143/256/68
o ShieldLowerLeft02
v -0.406250 0.436250 -0.646360
v -0.031250 0.436250 -0.646360
v -0.031250 1.311250 -0.646360
v -0.406250 1.311250 -0.646360
v -0.031250 0.436250 -0.708860
v -0.406250 0.436250 -0.708860
v -0.406250 1.311250 -0.708860
v -0.031250 1.311250 -0.708860
v -0.562500 0.186250 -0.677610
v -0.000000 0.186250 -0.677610
v -0.000000 1.373750 -0.677610
v -0.562500 1.373750 -0.677610
vt 0.226562 0.250000
vt 0.179688 0.250000
vt 0.179688 0.468750
vt 0.226562 0.468750
vt 0.281250 0.250000
vt 0.234375 0.250000
vt 0.234375 0.468750
vt 0.281250 0.468750
vt 0.179688 0.484375
vt 0.226562 0.484375
vt 0.273438 0.484375
vt 0.226562 0.484375
vt 0.226562 0.468750
vt 0.273438 0.468750
vt 0.171875 0.250000
vt 0.171875 0.468750
vt 0.281250 0.218750
vt 0.351562 0.218750
vt 0.351562 0.515625
vt 0.281250 0.515625
vn 0.0000 0.0000 1.0000
vn 0.0000 -0.0000 -1.0000
vn 0.0000 1.0000 0.0000
vn 0.0000 -1.0000 0.0000
vn -1.0000 0.0000 0.0000
vn 1.0000 0.0000 0.0000
usemtl Default_OBJ
s off
f 145/257/73 146/258/73 147/259/73 148/260/73
f 149/261/74 150/262/74 151/263/74 152/264/74
f 148/260/75 147/259/75 152/265/75 151/266/75
f 150/267/76 149/268/76 146/269/76 145/270/76
f 150/262/77 145/257/77 148/260/77 151/263/77
f 146/258/78 149/271/78 152/272/78 147/259/78
f 154/273/74 153/274/74 156/275/74 155/276/74
o ShieldLowerRight01
v -0.406250 0.436250 0.728640
v -0.031250 0.436250 0.728640
v -0.031250 1.311250 0.728640
v -0.406250 1.311250 0.728640
v -0.031250 0.436250 0.666140
v -0.406250 0.436250 0.666140
v -0.406250 1.311250 0.666140
v -0.031250 1.311250 0.666140
v -0.562500 0.186250 0.697390
v 0.000000 0.186250 0.697390
v 0.000000 1.373750 0.697390
v -0.562500 1.373750 0.697390
vt 0.226562 0.250000
vt 0.179688 0.250000
vt 0.179688 0.468750
vt 0.226562 0.468750
vt 0.281250 0.250000
vt 0.234375 0.250000
vt 0.234375 0.468750
vt 0.281250 0.468750
vt 0.179688 0.484375
vt 0.226562 0.484375
vt 0.273438 0.484375
vt 0.226562 0.484375
vt 0.226562 0.468750
vt 0.273438 0.468750
vt 0.171875 0.250000
vt 0.171875 0.468750
vt 0.281250 0.218750
vt 0.351562 0.218750
vt 0.351562 0.515625
vt 0.281250 0.515625
vn 0.0000 0.0000 1.0000
vn 0.0000 -0.0000 -1.0000
vn 0.0000 1.0000 -0.0000
vn 0.0000 -1.0000 0.0000
vn -1.0000 0.0000 0.0000
vn 1.0000 0.0000 -0.0000
usemtl Default_OBJ
s off
f 157/277/79 158/278/79 159/279/79 160/280/79
f 161/281/80 162/282/80 163/283/80 164/284/80
f 160/280/81 159/279/81 164/285/81 163/286/81
f 162/287/82 161/288/82 158/289/82 157/290/82
f 162/282/83 157/277/83 160/280/83 163/283/83
f 158/278/84 161/291/84 164/292/84 159/279/84
f 166/293/80 165/294/80 168/295/80 167/296/80
o ShieldLowerRight02
v 0.031250 0.436250 -0.646360
v 0.406250 0.436250 -0.646360
v 0.406250 1.311250 -0.646360
v 0.031250 1.311250 -0.646360
v 0.406250 0.436250 -0.708860
v 0.031250 0.436250 -0.708860
v 0.031250 1.311250 -0.708860
v 0.406250 1.311250 -0.708860
v -0.000000 0.186250 -0.677610
v 0.562500 0.186250 -0.677610
v 0.562500 1.373750 -0.677610
v -0.000000 1.373750 -0.677610
vt 0.179688 0.250000
vt 0.226562 0.250000
vt 0.226562 0.468750
vt 0.179688 0.468750
vt 0.234375 0.250000
vt 0.281250 0.250000
vt 0.281250 0.468750
vt 0.234375 0.468750
vt 0.226562 0.484375
vt 0.179688 0.484375
vt 0.226562 0.484375
vt 0.273438 0.484375
vt 0.273438 0.468750
vt 0.226562 0.468750
vt 0.171875 0.250000
vt 0.171875 0.468750
vt 0.351562 0.218750
vt 0.281250 0.218750
vt 0.281250 0.515625
vt 0.351562 0.515625
vn 0.0000 0.0000 1.0000
vn 0.0000 -0.0000 -1.0000
vn 0.0000 1.0000 0.0000
vn 0.0000 -1.0000 -0.0000
vn -1.0000 0.0000 0.0000
vn 1.0000 0.0000 0.0000
usemtl Default_OBJ
s off
f 169/297/85 170/298/85 171/299/85 172/300/85
f 173/301/86 174/302/86 175/303/86 176/304/86
f 172/300/87 171/299/87 176/305/87 175/306/87
f 174/307/88 173/308/88 170/309/88 169/310/88
f 174/311/89 169/297/89 172/300/89 175/312/89
f 170/298/90 173/301/90 176/304/90 171/299/90
f 178/313/86 177/314/86 180/315/86 179/316/86
