# Blender v2.80 (sub 75) OBJ File: 'concapedehead.blend'
# www.blender.org
mtllib concapedehead.mtl
o Body
v -0.568750 0.424290 0.474180
v 0.568750 0.424290 0.474180
v 0.568750 1.071593 0.415043
v -0.568750 1.071593 0.415043
v 0.568750 0.335585 -0.496777
v -0.568750 0.335585 -0.496776
v -0.568750 0.982889 -0.555914
v 0.568750 0.982889 -0.555914
v -0.650000 0.511236 0.334181
v 0.650000 0.511236 0.334181
v 0.650000 1.150496 0.451854
v -0.650000 1.150496 0.451854
v 0.650000 0.687745 -0.624710
v -0.650000 0.687745 -0.624709
v -0.650000 1.327004 -0.507036
v 0.650000 1.327004 -0.507036
v -0.487500 0.399774 -0.235947
v 0.487500 0.399774 -0.235947
v 0.487500 1.208917 -0.162167
v -0.487500 1.208917 -0.162167
v 0.487500 0.444042 -0.721432
v -0.487500 0.444042 -0.721432
v -0.487500 1.253185 -0.647652
v 0.487500 1.253185 -0.647652
v -0.487500 0.409532 0.606468
v 0.487500 0.409532 0.606468
v 0.487500 1.056846 0.665493
v -0.487500 1.056846 0.665494
v 0.487500 0.439045 0.282813
v -0.487500 0.439045 0.282813
v -0.487500 1.086359 0.341835
v 0.487500 1.086359 0.341835
vt 0.080000 0.600000
vt 0.173333 0.600000
vt 0.173333 0.760000
vt 0.080000 0.760000
vt 0.253333 0.600000
vt 0.346667 0.600000
vt 0.346667 0.760000
vt 0.253333 0.760000
vt 0.173333 1.000000
vt 0.080000 1.000000
vt 0.173333 1.000000
vt 0.266667 1.000000
vt 0.266667 0.760000
vt 0.173333 0.760000
vt -0.000000 0.600000
vt 0.000000 0.760000
vt 0.426667 0.600000
vt 0.533333 0.600000
vt 0.533333 0.760000
vt 0.426667 0.760000
vt 0.613333 0.600000
vt 0.720000 0.600000
vt 0.720000 0.760000
vt 0.613333 0.760000
vt 0.533333 1.000000
vt 0.426667 1.000000
vt 0.533333 1.000000
vt 0.640000 1.000000
vt 0.640000 0.760000
vt 0.533333 0.760000
vt 0.346667 0.600000
vt 0.346667 0.760000
vt 0.040000 0.280000
vt 0.120000 0.280000
vt 0.120000 0.480000
vt 0.040000 0.480000
vt 0.160000 0.280000
vt 0.240000 0.280000
vt 0.240000 0.480000
vt 0.160000 0.480000
vt 0.120000 0.600000
vt 0.040000 0.600000
vt 0.120000 0.600000
vt 0.200000 0.600000
vt 0.200000 0.480000
vt 0.120000 0.480000
vt -0.000000 0.280000
vt -0.000000 0.480000
vt 0.266667 0.360000
vt 0.346667 0.360000
vt 0.346667 0.520000
vt 0.266667 0.520000
vt 0.373333 0.360000
vt 0.453333 0.360000
vt 0.453333 0.520000
vt 0.373333 0.520000
vt 0.346667 0.600000
vt 0.266667 0.600000
vt 0.346667 0.600000
vt 0.426667 0.600000
vt 0.426667 0.520000
vt 0.346667 0.520000
vt 0.240000 0.360000
vt 0.240000 0.520000
vn 0.0000 0.0910 0.9959
vn -0.0000 -0.0910 -0.9959
vn -0.0000 0.9959 -0.0910
vn 0.0000 -0.9959 0.0910
vn -1.0000 0.0000 0.0000
vn 1.0000 0.0000 -0.0000
vn 0.0000 -0.1810 0.9835
vn -0.0000 0.1810 -0.9835
vn 0.0000 0.9835 0.1810
vn -0.0000 -0.9835 -0.1810
vn 0.0000 -0.0908 0.9959
vn -0.0000 0.0908 -0.9959
vn 0.0000 0.9959 0.0908
vn -0.0000 -0.9959 -0.0908
usemtl Default_OBJ
s off
f 1/1/1 2/2/1 3/3/1 4/4/1
f 5/5/2 6/6/2 7/7/2 8/8/2
f 4/4/3 3/3/3 8/9/3 7/10/3
f 6/11/4 5/12/4 2/13/4 1/14/4
f 6/15/5 1/1/5 4/4/5 7/16/5
f 2/2/6 5/5/6 8/8/6 3/3/6
f 9/17/7 10/18/7 11/19/7 12/20/7
f 13/21/8 14/22/8 15/23/8 16/24/8
f 12/20/9 11/19/9 16/25/9 15/26/9
f 14/27/10 13/28/10 10/29/10 9/30/10
f 14/31/5 9/17/5 12/20/5 15/32/5
f 10/18/6 13/21/6 16/24/6 11/19/6
f 17/33/11 18/34/11 19/35/11 20/36/11
f 21/37/12 22/38/12 23/39/12 24/40/12
f 20/36/13 19/35/13 24/41/13 23/42/13
f 22/43/14 21/44/14 18/45/14 17/46/14
f 22/47/5 17/33/5 20/36/5 23/48/5
f 18/34/6 21/37/6 24/40/6 19/35/6
f 25/49/11 26/50/11 27/51/11 28/52/11
f 29/53/12 30/54/12 31/55/12 32/56/12
f 28/52/13 27/51/13 32/57/13 31/58/13
f 30/59/14 29/60/14 26/61/14 25/62/14
f 30/63/5 25/49/5 28/52/5 31/64/5
f 26/50/6 29/53/6 32/56/6 27/51/6
o FrontLeftLeg
v 0.216286 0.371377 0.180035
v 0.664276 0.305056 0.360488
v 0.712509 0.626453 0.358868
v 0.264519 0.692773 0.178415
v 0.723650 0.295387 0.209532
v 0.275662 0.361708 0.029079
v 0.323895 0.683104 0.027459
v 0.771882 0.616783 0.207914
v 0.686886 0.345525 0.358467
v 1.147689 0.777471 0.512039
v 1.044664 0.898894 0.479653
v 0.583861 0.466945 0.326082
v 1.197897 0.778854 0.357497
v 0.737097 0.346906 0.203926
v 0.634072 0.468328 0.171540
v 1.094872 0.900274 0.325112
v 0.989333 0.837370 0.464987
v 1.444268 0.021797 0.745165
v 1.574356 0.109149 0.788211
v 1.119421 0.924722 0.508032
v 1.505376 0.004499 0.595590
v 1.050441 0.820072 0.315411
v 1.180529 0.907424 0.358457
v 1.635464 0.091851 0.638636
vt 0.466667 0.480000
vt 0.506667 0.480000
vt 0.506667 0.560000
vt 0.466667 0.560000
vt 0.520000 0.480000
vt 0.560000 0.480000
vt 0.560000 0.560000
vt 0.520000 0.560000
vt 0.506667 0.600000
vt 0.466667 0.600000
vt 0.506667 0.600000
vt 0.546667 0.600000
vt 0.546667 0.560000
vt 0.506667 0.560000
vt 0.453333 0.480000
vt 0.453333 0.560000
vt 0.466667 0.400000
vt 0.520000 0.400000
vt 0.520000 0.440000
vt 0.466667 0.440000
vt 0.533333 0.400000
vt 0.586667 0.400000
vt 0.586667 0.440000
vt 0.533333 0.440000
vt 0.520000 0.480000
vt 0.466667 0.480000
vt 0.520000 0.480000
vt 0.573333 0.480000
vt 0.573333 0.440000
vt 0.520000 0.440000
vt 0.453333 0.400000
vt 0.453333 0.440000
vt 0.573333 0.520000
vt 0.653333 0.520000
vt 0.653333 0.560000
vt 0.573333 0.560000
vt 0.666667 0.520000
vt 0.746667 0.520000
vt 0.746667 0.560000
vt 0.666667 0.560000
vt 0.653333 0.600000
vt 0.573333 0.600000
vt 0.653333 0.600000
vt 0.733333 0.600000
vt 0.733333 0.560000
vt 0.653333 0.560000
vt 0.560000 0.520000
vt 0.560000 0.560000
vn -0.3654 0.0595 0.9290
vn 0.3654 -0.0595 -0.9290
vn 0.1484 0.9889 -0.0050
vn -0.1484 -0.9889 0.0050
vn -0.9189 0.1360 -0.3702
vn 0.9190 -0.1360 0.3702
vn -0.3090 -0.0085 0.9510
vn 0.3090 0.0085 -0.9510
vn -0.6340 0.7472 -0.1993
vn 0.6340 -0.7472 0.1993
vn -0.7089 -0.6645 -0.2363
vn 0.7089 0.6645 0.2363
vn -0.3761 0.1064 0.9205
vn 0.3761 -0.1064 -0.9205
vn 0.8005 0.5376 0.2649
vn -0.8005 -0.5376 -0.2649
vn -0.4666 0.8365 -0.2874
vn 0.4666 -0.8365 0.2874
usemtl Default_OBJ
s off
f 33/65/15 34/66/15 35/67/15 36/68/15
f 37/69/16 38/70/16 39/71/16 40/72/16
f 36/68/17 35/67/17 40/73/17 39/74/17
f 38/75/18 37/76/18 34/77/18 33/78/18
f 38/79/19 33/65/19 36/68/19 39/80/19
f 34/66/20 37/69/20 40/72/20 35/67/20
f 41/81/21 42/82/21 43/83/21 44/84/21
f 45/85/22 46/86/22 47/87/22 48/88/22
f 44/84/23 43/83/23 48/89/23 47/90/23
f 46/91/24 45/92/24 42/93/24 41/94/24
f 46/95/25 41/81/25 44/84/25 47/96/25
f 42/82/26 45/85/26 48/88/26 43/83/26
f 49/97/27 50/98/27 51/99/27 52/100/27
f 53/101/28 54/102/28 55/103/28 56/104/28
f 52/100/29 51/99/29 56/105/29 55/106/29
f 54/107/30 53/108/30 50/109/30 49/110/30
f 54/111/31 49/97/31 52/100/31 55/112/31
f 50/98/32 53/101/32 56/104/32 51/99/32
o Head
v -0.325000 0.529247 0.846285
v 0.325000 0.529247 0.846285
v 0.325000 0.848878 0.905123
v -0.325000 0.848878 0.905123
v 0.325000 0.588082 0.526656
v -0.325000 0.588082 0.526656
v -0.325000 0.907713 0.585492
v 0.325000 0.907713 0.585491
vt 0.666667 0.840000
vt 0.720000 0.840000
vt 0.720000 0.920000
vt 0.666667 0.920000
vt 0.746667 0.840000
vt 0.800000 0.840000
vt 0.800000 0.920000
vt 0.746667 0.920000
vt 0.720000 1.000000
vt 0.666667 1.000000
vt 0.720000 1.000000
vt 0.773333 1.000000
vt 0.773333 0.920000
vt 0.720000 0.920000
vt 0.640000 0.840000
vt 0.640000 0.920000
vn 0.0000 -0.1810 0.9835
vn -0.0000 0.1810 -0.9835
vn 0.0000 0.9835 0.1810
vn -0.0000 -0.9835 -0.1810
vn -1.0000 0.0000 0.0000
vn 1.0000 -0.0000 -0.0000
usemtl Default_OBJ
s off
f 57/113/33 58/114/33 59/115/33 60/116/33
f 61/117/34 62/118/34 63/119/34 64/120/34
f 60/116/35 59/115/35 64/121/35 63/122/35
f 62/123/36 61/124/36 58/125/36 57/126/36
f 62/127/37 57/113/37 60/116/37 63/128/37
f 58/114/38 61/117/38 64/120/38 59/115/38
o RightMouth
v -0.341177 0.453987 1.134627
v -0.191849 0.470541 1.196539
v -0.229099 0.793381 1.200064
v -0.378427 0.776826 1.138155
v -0.007891 0.496692 0.745836
v -0.157222 0.480138 0.683925
v -0.194472 0.802977 0.687453
v -0.045141 0.819529 0.749362
v -0.151270 0.607816 0.943410
v -0.156634 0.222714 1.242283
v -0.309127 0.400003 1.467981
v -0.303763 0.785105 1.169111
vt 0.760000 0.640000
vt 0.773333 0.640000
vt 0.773333 0.720000
vt 0.760000 0.720000
vt 0.813333 0.640000
vt 0.826667 0.640000
vt 0.826667 0.720000
vt 0.813333 0.720000
vt 0.773333 0.840000
vt 0.760000 0.840000
vt 0.773333 0.840000
vt 0.786667 0.840000
vt 0.786667 0.720000
vt 0.773333 0.720000
vt 0.720000 0.640000
vt 0.720000 0.720000
vt 0.826667 0.720000
vt 0.866667 0.720000
vt 0.866667 0.800000
vt 0.826667 0.800000
vn -0.3773 -0.0536 0.9245
vn 0.3773 0.0536 -0.9245
vn -0.1146 0.9934 0.0109
vn 0.1146 -0.9934 -0.0109
vn -0.9190 -0.1019 -0.3810
vn 0.9190 0.1019 0.3810
vn 0.8830 0.2800 0.3767
usemtl Default_OBJ
s off
f 65/129/39 66/130/39 67/131/39 68/132/39
f 69/133/40 70/134/40 71/135/40 72/136/40
f 68/132/41 67/131/41 72/137/41 71/138/41
f 70/139/42 69/140/42 66/141/42 65/142/42
f 70/143/43 65/129/43 68/132/43 71/144/43
f 66/130/44 69/133/44 72/136/44 67/131/44
f 74/145/45 73/146/45 76/147/45 75/148/45
o LeftMouth
v 0.191849 0.470541 1.196538
v 0.341177 0.453987 1.134627
v 0.378427 0.776826 1.138155
v 0.229099 0.793381 1.200064
v 0.157222 0.480138 0.683925
v 0.007891 0.496692 0.745836
v 0.045141 0.819529 0.749362
v 0.194472 0.802977 0.687453
v 0.151271 0.607816 0.943410
v 0.156634 0.222714 1.242283
v 0.309127 0.400003 1.467981
v 0.303763 0.785105 1.169111
vt 0.760000 0.640000
vt 0.773333 0.640000
vt 0.773333 0.720000
vt 0.760000 0.720000
vt 0.813333 0.640000
vt 0.826667 0.640000
vt 0.826667 0.720000
vt 0.813333 0.720000
vt 0.773333 0.840000
vt 0.760000 0.840000
vt 0.773333 0.840000
vt 0.786667 0.840000
vt 0.786667 0.720000
vt 0.773333 0.720000
vt 0.720000 0.640000
vt 0.720000 0.720000
vt 0.826667 0.720000
vt 0.866667 0.720000
vt 0.866667 0.800000
vt 0.826667 0.800000
vn 0.3773 -0.0536 0.9245
vn -0.3773 0.0536 -0.9245
vn 0.1146 0.9934 0.0109
vn -0.1146 -0.9934 -0.0109
vn -0.9190 0.1019 0.3810
vn 0.9190 -0.1019 -0.3810
vn 0.8830 -0.2800 -0.3767
usemtl Default_OBJ
s off
f 77/149/46 78/150/46 79/151/46 80/152/46
f 81/153/47 82/154/47 83/155/47 84/156/47
f 80/152/48 79/151/48 84/157/48 83/158/48
f 82/159/49 81/160/49 78/161/49 77/162/49
f 82/163/50 77/149/50 80/152/50 83/164/50
f 78/150/51 81/153/51 84/156/51 79/151/51
f 86/165/52 85/166/52 88/167/52 87/168/52
o BackLeftLeg
v 0.259467 0.317361 -0.015612
v 0.726947 0.262865 -0.142690
v 0.764335 0.585707 -0.143592
v 0.296855 0.640203 -0.016517
v 0.684819 0.267306 -0.299571
v 0.217337 0.321802 -0.172493
v 0.254727 0.644641 -0.173398
v 0.722207 0.590145 -0.300473
v 0.743863 0.304551 -0.154059
v 1.205011 0.748919 -0.265316
v 1.102793 0.866536 -0.219226
v 0.641646 0.422167 -0.107967
v 1.153368 0.764124 -0.418641
v 0.692221 0.319753 -0.307381
v 0.590005 0.437369 -0.261291
v 1.051151 0.881740 -0.372548
v 1.049680 0.803291 -0.203717
v 1.583044 -0.004176 -0.322654
v 1.713088 0.086845 -0.357429
v 1.179727 0.894314 -0.238492
v 1.543139 -0.007337 -0.480146
v 1.009778 0.800132 -0.361209
v 1.139822 0.891152 -0.395987
v 1.673186 0.083686 -0.514921
vt 0.466667 0.480000
vt 0.506667 0.480000
vt 0.506667 0.560000
vt 0.466667 0.560000
vt 0.520000 0.480000
vt 0.560000 0.480000
vt 0.560000 0.560000
vt 0.520000 0.560000
vt 0.506667 0.600000
vt 0.466667 0.600000
vt 0.506667 0.560000
vt 0.546667 0.560000
vt 0.546667 0.600000
vt 0.506667 0.600000
vt 0.453333 0.480000
vt 0.453333 0.560000
vt 0.466667 0.400000
vt 0.520000 0.400000
vt 0.520000 0.440000
vt 0.466667 0.440000
vt 0.533333 0.400000
vt 0.586667 0.400000
vt 0.586667 0.440000
vt 0.533333 0.440000
vt 0.520000 0.480000
vt 0.466667 0.480000
vt 0.520000 0.440000
vt 0.573333 0.440000
vt 0.573333 0.480000
vt 0.520000 0.480000
vt 0.453333 0.400000
vt 0.453333 0.440000
vt 0.573333 0.520000
vt 0.653333 0.520000
vt 0.653333 0.560000
vt 0.573333 0.560000
vt 0.666667 0.520000
vt 0.746667 0.520000
vt 0.746667 0.560000
vt 0.666667 0.560000
vt 0.653333 0.600000
vt 0.573333 0.600000
vt 0.653333 0.560000
vt 0.733333 0.560000
vt 0.733333 0.600000
vt 0.653333 0.600000
vt 0.560000 0.520000
vt 0.560000 0.560000
vn 0.2592 -0.0273 0.9654
vn -0.2592 0.0273 -0.9654
vn 0.1150 0.9934 -0.0028
vn -0.1150 -0.9934 0.0028
vn -0.9589 0.1118 0.2607
vn 0.9589 -0.1118 -0.2607
vn 0.3178 -0.0936 0.9435
vn -0.3178 0.0936 -0.9435
vn -0.6290 0.7238 0.2836
vn 0.6290 -0.7238 -0.2836
vn -0.7095 -0.6836 0.1712
vn 0.7095 0.6836 -0.1712
vn 0.2456 0.0194 0.9692
vn -0.2456 -0.0194 -0.9692
vn 0.8003 0.5601 -0.2140
vn -0.8003 -0.5601 0.2140
vn -0.5470 0.8282 0.1220
vn 0.5470 -0.8282 -0.1220
usemtl Default_OBJ
s off
f 89/169/53 90/170/53 91/171/53 92/172/53
f 93/173/54 94/174/54 95/175/54 96/176/54
f 92/172/55 91/171/55 96/177/55 95/178/55
f 94/179/56 93/180/56 90/181/56 89/182/56
f 94/183/57 89/169/57 92/172/57 95/184/57
f 90/170/58 93/173/58 96/176/58 91/171/58
f 97/185/59 98/186/59 99/187/59 100/188/59
f 101/189/60 102/190/60 103/191/60 104/192/60
f 100/188/61 99/187/61 104/193/61 103/194/61
f 102/195/62 101/196/62 98/197/62 97/198/62
f 102/199/63 97/185/63 100/188/63 103/200/63
f 98/186/64 101/189/64 104/192/64 99/187/64
f 105/201/65 106/202/65 107/203/65 108/204/65
f 109/205/66 110/206/66 111/207/66 112/208/66
f 108/204/67 107/203/67 112/209/67 111/210/67
f 110/211/68 109/212/68 106/213/68 105/214/68
f 110/215/69 105/201/69 108/204/69 111/216/69
f 106/202/70 109/205/70 112/208/70 107/203/70
o BackRightLeg
v -0.726947 0.262865 -0.142689
v -0.259467 0.317361 -0.015612
v -0.296855 0.640203 -0.016517
v -0.764335 0.585707 -0.143592
v -0.217337 0.321802 -0.172493
v -0.684819 0.267306 -0.299571
v -0.722207 0.590145 -0.300473
v -0.254727 0.644641 -0.173398
v -1.205011 0.748919 -0.265316
v -0.743863 0.304551 -0.154059
v -0.641646 0.422167 -0.107967
v -1.102793 0.866536 -0.219226
v -0.692221 0.319753 -0.307381
v -1.153368 0.764124 -0.418641
v -1.051151 0.881740 -0.372548
v -0.590005 0.437369 -0.261291
v -1.583044 -0.004176 -0.322654
v -1.049680 0.803291 -0.203717
v -1.179727 0.894314 -0.238492
v -1.713088 0.086845 -0.357429
v -1.009778 0.800132 -0.361209
v -1.543139 -0.007337 -0.480146
v -1.673186 0.083686 -0.514921
v -1.139822 0.891152 -0.395987
vt 0.506667 0.480000
vt 0.466667 0.480000
vt 0.466667 0.560000
vt 0.506667 0.560000
vt 0.560000 0.480000
vt 0.520000 0.480000
vt 0.520000 0.560000
vt 0.560000 0.560000
vt 0.466667 0.600000
vt 0.506667 0.600000
vt 0.546667 0.560000
vt 0.506667 0.560000
vt 0.506667 0.600000
vt 0.546667 0.600000
vt 0.453333 0.480000
vt 0.453333 0.560000
vt 0.520000 0.400000
vt 0.466667 0.400000
vt 0.466667 0.440000
vt 0.520000 0.440000
vt 0.586667 0.400000
vt 0.533333 0.400000
vt 0.533333 0.440000
vt 0.586667 0.440000
vt 0.466667 0.480000
vt 0.520000 0.480000
vt 0.573333 0.440000
vt 0.520000 0.440000
vt 0.520000 0.480000
vt 0.573333 0.480000
vt 0.453333 0.400000
vt 0.453333 0.440000
vt 0.653333 0.520000
vt 0.573333 0.520000
vt 0.573333 0.560000
vt 0.653333 0.560000
vt 0.746667 0.520000
vt 0.666667 0.520000
vt 0.666667 0.560000
vt 0.746667 0.560000
vt 0.573333 0.600000
vt 0.653333 0.600000
vt 0.733333 0.560000
vt 0.653333 0.560000
vt 0.653333 0.600000
vt 0.733333 0.600000
vt 0.560000 0.520000
vt 0.560000 0.560000
vn -0.2592 -0.0273 0.9654
vn 0.2592 0.0273 -0.9654
vn -0.1150 0.9934 -0.0028
vn 0.1150 -0.9934 0.0028
vn -0.9589 -0.1118 -0.2607
vn 0.9589 0.1118 0.2607
vn -0.3178 -0.0936 0.9435
vn 0.3178 0.0936 -0.9435
vn 0.6290 0.7238 0.2836
vn -0.6290 -0.7238 -0.2836
vn -0.7095 0.6836 -0.1712
vn 0.7095 -0.6836 0.1712
vn -0.2456 0.0194 0.9692
vn 0.2456 -0.0194 -0.9692
vn -0.8003 0.5601 -0.2140
vn 0.8003 -0.5601 0.2140
vn -0.5470 -0.8282 -0.1220
vn 0.5470 0.8282 0.1220
usemtl Default_OBJ
s off
f 113/217/71 114/218/71 115/219/71 116/220/71
f 117/221/72 118/222/72 119/223/72 120/224/72
f 116/220/73 115/219/73 120/225/73 119/226/73
f 118/227/74 117/228/74 114/229/74 113/230/74
f 118/222/75 113/217/75 116/220/75 119/223/75
f 114/218/76 117/231/76 120/232/76 115/219/76
f 121/233/77 122/234/77 123/235/77 124/236/77
f 125/237/78 126/238/78 127/239/78 128/240/78
f 124/236/79 123/235/79 128/241/79 127/242/79
f 126/243/80 125/244/80 122/245/80 121/246/80
f 126/238/81 121/233/81 124/236/81 127/239/81
f 122/234/82 125/247/82 128/248/82 123/235/82
f 129/249/83 130/250/83 131/251/83 132/252/83
f 133/253/84 134/254/84 135/255/84 136/256/84
f 132/252/85 131/251/85 136/257/85 135/258/85
f 134/259/86 133/260/86 130/261/86 129/262/86
f 134/254/87 129/249/87 132/252/87 135/255/87
f 130/250/88 133/263/88 136/264/88 131/251/88
o FrontRightLeg
v -0.664277 0.305056 0.360488
v -0.216286 0.371377 0.180035
v -0.264519 0.692773 0.178415
v -0.712509 0.626452 0.358868
v -0.275662 0.361707 0.029079
v -0.723650 0.295387 0.209532
v -0.771883 0.616783 0.207914
v -0.323895 0.683104 0.027459
v -1.147689 0.777471 0.512039
v -0.686886 0.345525 0.358467
v -0.583861 0.466945 0.326082
v -1.044664 0.898893 0.479653
v -0.737097 0.346906 0.203926
v -1.197898 0.778851 0.357498
v -1.094873 0.900274 0.325112
v -0.634072 0.468328 0.171540
v -1.444269 0.021796 0.745166
v -0.989334 0.837370 0.464987
v -1.119422 0.924722 0.508032
v -1.574357 0.109149 0.788211
v -1.050442 0.820072 0.315411
v -1.505377 0.004499 0.595590
v -1.635465 0.091851 0.638636
v -1.180530 0.907424 0.358457
vt 0.506667 0.480000
vt 0.466667 0.480000
vt 0.466667 0.560000
vt 0.506667 0.560000
vt 0.560000 0.480000
vt 0.520000 0.480000
vt 0.520000 0.560000
vt 0.560000 0.560000
vt 0.466667 0.600000
vt 0.506667 0.600000
vt 0.546667 0.600000
vt 0.506667 0.600000
vt 0.506667 0.560000
vt 0.546667 0.560000
vt 0.453333 0.480000
vt 0.453333 0.560000
vt 0.520000 0.400000
vt 0.466667 0.400000
vt 0.466667 0.440000
vt 0.520000 0.440000
vt 0.586667 0.400000
vt 0.533333 0.400000
vt 0.533333 0.440000
vt 0.586667 0.440000
vt 0.466667 0.480000
vt 0.520000 0.480000
vt 0.573333 0.480000
vt 0.520000 0.480000
vt 0.520000 0.440000
vt 0.573333 0.440000
vt 0.453333 0.400000
vt 0.453333 0.440000
vt 0.653333 0.520000
vt 0.573333 0.520000
vt 0.573333 0.560000
vt 0.653333 0.560000
vt 0.746667 0.520000
vt 0.666667 0.520000
vt 0.666667 0.560000
vt 0.746667 0.560000
vt 0.573333 0.600000
vt 0.653333 0.600000
vt 0.733333 0.600000
vt 0.653333 0.600000
vt 0.653333 0.560000
vt 0.733333 0.560000
vt 0.560000 0.520000
vt 0.560000 0.560000
vn 0.3654 0.0595 0.9290
vn -0.3654 -0.0595 -0.9290
vn -0.1484 0.9889 -0.0050
vn 0.1484 -0.9889 0.0050
vn -0.9190 -0.1360 0.3702
vn 0.9189 0.1360 -0.3702
vn 0.3090 -0.0085 0.9510
vn -0.3090 0.0085 -0.9510
vn 0.6340 0.7472 -0.1993
vn -0.6340 -0.7472 0.1993
vn -0.7089 0.6645 0.2363
vn 0.7089 -0.6645 -0.2363
vn 0.3761 0.1064 0.9205
vn -0.3761 -0.1064 -0.9205
vn -0.8005 0.5376 0.2649
vn 0.8005 -0.5376 -0.2649
vn -0.4666 -0.8365 0.2874
vn 0.4666 0.8365 -0.2874
usemtl Default_OBJ
s off
f 137/265/89 138/266/89 139/267/89 140/268/89
f 141/269/90 142/270/90 143/271/90 144/272/90
f 140/268/91 139/267/91 144/273/91 143/274/91
f 142/275/92 141/276/92 138/277/92 137/278/92
f 142/270/93 137/265/93 140/268/93 143/271/93
f 138/266/94 141/279/94 144/280/94 139/267/94
f 145/281/95 146/282/95 147/283/95 148/284/95
f 149/285/96 150/286/96 151/287/96 152/288/96
f 148/284/97 147/283/97 152/289/97 151/290/97
f 150/291/98 149/292/98 146/293/98 145/294/98
f 150/286/99 145/281/99 148/284/99 151/287/99
f 146/282/100 149/295/100 152/296/100 147/283/100
f 153/297/101 154/298/101 155/299/101 156/300/101
f 157/301/102 158/302/102 159/303/102 160/304/102
f 156/300/103 155/299/103 160/305/103 159/306/103
f 158/307/104 157/308/104 154/309/104 153/310/104
f 158/302/105 153/297/105 156/300/105 159/303/105
f 154/298/106 157/311/106 160/312/106 155/299/106
