# Blender v2.82 (sub 7) OBJ File: 'ghoul.blend'
# www.blender.org
mtllib ghoul.mtl
o Body
v 0.121742 0.951888 0.019460
v 0.121742 0.897179 0.006386
v 0.121742 0.899592 0.238298
v 0.121742 0.844883 0.225224
v 0.346742 0.899592 0.238298
v 0.346742 0.844883 0.225224
v 0.346742 0.951888 0.019460
v 0.346742 0.897179 0.006386
v 0.121742 0.855543 -0.061398
v 0.121742 0.800834 -0.074472
v 0.121742 0.790173 0.212150
v 0.121742 0.735464 0.199076
v 0.402992 0.790173 0.212150
v 0.402992 0.735464 0.199076
v 0.402992 0.855543 -0.061398
v 0.402992 0.800834 -0.074472
v -0.227008 1.326387 -0.047197
v -0.227008 0.647989 -0.209315
v -0.227008 1.255787 0.248234
v -0.227008 0.577389 0.086117
v 0.245492 1.255787 0.248234
v 0.245492 0.577389 0.086117
v 0.245492 1.326387 -0.047197
v 0.245492 0.647989 -0.209315
v -0.215758 1.312830 -0.038870
v -0.215758 0.656316 -0.195758
v -0.215758 1.247460 0.234678
v -0.215758 0.590946 0.077789
v 0.234242 1.247460 0.234678
v 0.234242 0.590946 0.077789
v 0.234242 1.312830 -0.038870
v 0.234242 0.656316 -0.195758
vt 0.750000 0.695312
vt 0.750000 0.687500
vt 0.718750 0.695312
vt 0.718750 0.687500
vt 0.687500 0.695312
vt 0.687500 0.687500
vt 0.656250 0.695312
vt 0.656250 0.687500
vt 0.687500 0.726562
vt 0.718750 0.726562
vt 0.718750 0.726562
vt 0.718750 0.695312
vt 0.750000 0.726562
vt 0.750000 0.695312
vt 0.781250 0.695312
vt 0.781250 0.687500
vt 0.742188 0.648438
vt 0.742188 0.640625
vt 0.703125 0.648438
vt 0.703125 0.640625
vt 0.664062 0.648438
vt 0.664062 0.640625
vt 0.625000 0.648438
vt 0.625000 0.640625
vt 0.664062 0.687500
vt 0.703125 0.687500
vt 0.703125 0.687500
vt 0.703125 0.648438
vt 0.742188 0.687500
vt 0.742188 0.648438
vt 0.781250 0.648438
vt 0.781250 0.640625
vt 0.343750 0.960938
vt 0.343750 0.867188
vt 0.304688 0.960938
vt 0.304688 0.867188
vt 0.242188 0.960938
vt 0.242188 0.867188
vt 0.203125 0.960938
vt 0.203125 0.867188
vt 0.242188 1.000000
vt 0.304688 1.000000
vt 0.304688 1.000000
vt 0.304688 0.960938
vt 0.367188 1.000000
vt 0.367188 0.960938
vt 0.406250 0.960938
vt 0.406250 0.867188
vt 0.140625 0.960938
vt 0.140625 0.867188
vt 0.101562 0.960938
vt 0.101562 0.867188
vt 0.039062 0.960938
vt 0.039062 0.867188
vt 0.000000 0.960938
vt 0.000000 0.867188
vt 0.039062 1.000000
vt 0.101562 1.000000
vt 0.101562 1.000000
vt 0.101562 0.960938
vt 0.164062 1.000000
vt 0.164062 0.960938
vt 0.203125 0.960938
vt 0.203125 0.867188
vn -1.0000 0.0000 0.0000
vn 1.0000 0.0000 0.0000
vn 0.0000 0.9726 0.2324
vn -0.0000 -0.9726 -0.2324
vn -0.0000 0.2324 -0.9726
vn 0.0000 -0.2324 0.9726
usemtl m_2
s 1
f 1/1/1 2/2/1 3/3/1
f 2/2/1 4/4/1 3/3/1
f 5/5/2 6/6/2 7/7/2
f 6/6/2 8/8/2 7/7/2
f 5/5/3 7/9/3 3/3/3
f 7/9/3 1/10/3 3/3/3
f 8/11/4 6/12/4 2/13/4
f 6/12/4 4/14/4 2/13/4
f 7/15/5 8/16/5 1/1/5
f 8/16/5 2/2/5 1/1/5
f 3/3/6 4/4/6 5/5/6
f 4/4/6 6/6/6 5/5/6
f 9/17/1 10/18/1 11/19/1
f 10/18/1 12/20/1 11/19/1
f 13/21/2 14/22/2 15/23/2
f 14/22/2 16/24/2 15/23/2
f 13/21/3 15/25/3 11/19/3
f 15/25/3 9/26/3 11/19/3
f 16/27/4 14/28/4 10/29/4
f 14/28/4 12/30/4 10/29/4
f 15/31/5 16/32/5 9/17/5
f 16/32/5 10/18/5 9/17/5
f 11/19/6 12/20/6 13/21/6
f 12/20/6 14/22/6 13/21/6
f 17/33/1 18/34/1 19/35/1
f 18/34/1 20/36/1 19/35/1
f 21/37/2 22/38/2 23/39/2
f 22/38/2 24/40/2 23/39/2
f 21/37/3 23/41/3 19/35/3
f 23/41/3 17/42/3 19/35/3
f 24/43/4 22/44/4 18/45/4
f 22/44/4 20/46/4 18/45/4
f 23/47/5 24/48/5 17/33/5
f 24/48/5 18/34/5 17/33/5
f 19/35/6 20/36/6 21/37/6
f 20/36/6 22/38/6 21/37/6
f 25/49/1 26/50/1 27/51/1
f 26/50/1 28/52/1 27/51/1
f 29/53/2 30/54/2 31/55/2
f 30/54/2 32/56/2 31/55/2
f 29/53/3 31/57/3 27/51/3
f 31/57/3 25/58/3 27/51/3
f 32/59/4 30/60/4 26/61/4
f 30/60/4 28/62/4 26/61/4
f 31/63/5 32/64/5 25/49/5
f 32/64/5 26/50/5 25/49/5
f 27/51/6 28/52/6 29/53/6
f 28/52/6 30/54/6 29/53/6
o Head
v -0.328258 1.396032 0.512513
v -0.328258 1.339782 0.512513
v -0.328258 1.396032 0.737513
v -0.328258 1.339782 0.737513
v -0.103258 1.396032 0.737513
v -0.103258 1.339782 0.737513
v -0.103258 1.396032 0.512513
v -0.103258 1.339782 0.512513
v -0.384508 1.508532 0.512513
v -0.384508 1.452282 0.512513
v -0.384508 1.508532 0.793763
v -0.384508 1.452282 0.793763
v -0.103258 1.508532 0.793763
v -0.103258 1.452282 0.793763
v -0.103258 1.508532 0.512513
v -0.103258 1.452282 0.512513
v 0.065492 1.452282 0.062513
v 0.065492 1.396032 0.062513
v 0.065492 1.452282 0.343763
v 0.065492 1.396032 0.343763
v 0.346742 1.452282 0.343763
v 0.346742 1.396032 0.343763
v 0.346742 1.452282 0.062513
v 0.346742 1.396032 0.062513
v -0.227008 1.547907 0.163763
v -0.227008 1.075407 0.163763
v -0.227008 1.547907 0.636263
v -0.227008 1.075407 0.636263
v 0.245492 1.547907 0.636263
v 0.245492 1.075407 0.636263
v 0.245492 1.547907 0.163763
v 0.245492 1.075407 0.163763
v -0.215758 1.092282 0.175013
v -0.215758 0.867282 0.175013
v -0.215758 1.092282 0.625013
v -0.215758 0.867282 0.625013
v 0.234242 1.092282 0.625013
v 0.234242 0.867282 0.625013
v 0.234242 1.092282 0.175013
v 0.234242 0.867282 0.175013
v -0.215758 1.542282 0.175013
v -0.215758 1.092282 0.175013
v -0.215758 1.542282 0.625013
v -0.215758 1.092282 0.625013
v 0.234242 1.542282 0.625013
v 0.234242 1.092282 0.625013
v 0.234242 1.542282 0.175013
v 0.234242 1.092282 0.175013
vt 0.750000 0.695312
vt 0.750000 0.687500
vt 0.718750 0.695312
vt 0.718750 0.687500
vt 0.687500 0.695312
vt 0.687500 0.687500
vt 0.656250 0.695312
vt 0.656250 0.687500
vt 0.687500 0.726562
vt 0.718750 0.726562
vt 0.718750 0.726562
vt 0.718750 0.695312
vt 0.750000 0.726562
vt 0.750000 0.695312
vt 0.781250 0.695312
vt 0.781250 0.687500
vt 0.742188 0.648438
vt 0.742188 0.640625
vt 0.703125 0.648438
vt 0.703125 0.640625
vt 0.664062 0.648438
vt 0.664062 0.640625
vt 0.625000 0.648438
vt 0.625000 0.640625
vt 0.664062 0.687500
vt 0.703125 0.687500
vt 0.703125 0.687500
vt 0.703125 0.648438
vt 0.742188 0.687500
vt 0.742188 0.648438
vt 0.781250 0.648438
vt 0.781250 0.640625
vt 0.742188 0.648438
vt 0.742188 0.640625
vt 0.703125 0.648438
vt 0.703125 0.640625
vt 0.664062 0.648438
vt 0.664062 0.640625
vt 0.625000 0.648438
vt 0.625000 0.640625
vt 0.664062 0.687500
vt 0.703125 0.687500
vt 0.703125 0.687500
vt 0.703125 0.648438
vt 0.742188 0.687500
vt 0.742188 0.648438
vt 0.781250 0.648438
vt 0.781250 0.640625
vt 0.437500 0.554688
vt 0.437500 0.492188
vt 0.375000 0.554688
vt 0.375000 0.492188
vt 0.312500 0.554688
vt 0.312500 0.492188
vt 0.250000 0.554688
vt 0.250000 0.492188
vt 0.312500 0.617188
vt 0.375000 0.617188
vt 0.375000 0.617188
vt 0.375000 0.554688
vt 0.437500 0.617188
vt 0.437500 0.554688
vt 0.500000 0.554688
vt 0.500000 0.492188
vt 0.187500 0.429688
vt 0.187500 0.398438
vt 0.125000 0.429688
vt 0.125000 0.398438
vt 0.062500 0.429688
vt 0.062500 0.398438
vt 0.000000 0.429688
vt 0.000000 0.398438
vt 0.062500 0.492188
vt 0.125000 0.492188
vt 0.125000 0.492188
vt 0.125000 0.429688
vt 0.187500 0.492188
vt 0.187500 0.429688
vt 0.250000 0.429688
vt 0.250000 0.398438
vt 0.187500 0.554688
vt 0.187500 0.492188
vt 0.125000 0.554688
vt 0.125000 0.492188
vt 0.062500 0.554688
vt 0.062500 0.492188
vt 0.000000 0.554688
vt 0.000000 0.492188
vt 0.062500 0.617188
vt 0.125000 0.617188
vt 0.125000 0.617188
vt 0.125000 0.554688
vt 0.187500 0.617188
vt 0.187500 0.554688
vt 0.250000 0.554688
vt 0.250000 0.492188
vn -1.0000 0.0000 0.0000
vn 1.0000 0.0000 -0.0000
vn 0.0000 1.0000 0.0000
vn 0.0000 -1.0000 0.0000
vn 0.0000 -0.0000 -1.0000
vn 0.0000 0.0000 1.0000
usemtl m_2
s 1
f 33/65/7 34/66/7 35/67/7
f 34/66/7 36/68/7 35/67/7
f 37/69/8 38/70/8 39/71/8
f 38/70/8 40/72/8 39/71/8
f 37/69/9 39/73/9 35/67/9
f 39/73/9 33/74/9 35/67/9
f 40/75/10 38/76/10 34/77/10
f 38/76/10 36/78/10 34/77/10
f 39/79/11 40/80/11 33/65/11
f 40/80/11 34/66/11 33/65/11
f 35/67/12 36/68/12 37/69/12
f 36/68/12 38/70/12 37/69/12
f 41/81/7 42/82/7 43/83/7
f 42/82/7 44/84/7 43/83/7
f 45/85/8 46/86/8 47/87/8
f 46/86/8 48/88/8 47/87/8
f 45/85/9 47/89/9 43/83/9
f 47/89/9 41/90/9 43/83/9
f 48/91/10 46/92/10 42/93/10
f 46/92/10 44/94/10 42/93/10
f 47/95/11 48/96/11 41/81/11
f 48/96/11 42/82/11 41/81/11
f 43/83/12 44/84/12 45/85/12
f 44/84/12 46/86/12 45/85/12
f 49/97/7 50/98/7 51/99/7
f 50/98/7 52/100/7 51/99/7
f 53/101/8 54/102/8 55/103/8
f 54/102/8 56/104/8 55/103/8
f 53/101/9 55/105/9 51/99/9
f 55/105/9 49/106/9 51/99/9
f 56/107/10 54/108/10 50/109/10
f 54/108/10 52/110/10 50/109/10
f 55/111/11 56/112/11 49/97/11
f 56/112/11 50/98/11 49/97/11
f 51/99/12 52/100/12 53/101/12
f 52/100/12 54/102/12 53/101/12
f 57/113/7 58/114/7 59/115/7
f 58/114/7 60/116/7 59/115/7
f 61/117/8 62/118/8 63/119/8
f 62/118/8 64/120/8 63/119/8
f 61/117/9 63/121/9 59/115/9
f 63/121/9 57/122/9 59/115/9
f 64/123/10 62/124/10 58/125/10
f 62/124/10 60/126/10 58/125/10
f 63/127/11 64/128/11 57/113/11
f 64/128/11 58/114/11 57/113/11
f 59/115/12 60/116/12 61/117/12
f 60/116/12 62/118/12 61/117/12
f 65/129/7 66/130/7 67/131/7
f 66/130/7 68/132/7 67/131/7
f 69/133/8 70/134/8 71/135/8
f 70/134/8 72/136/8 71/135/8
f 69/133/9 71/137/9 67/131/9
f 71/137/9 65/138/9 67/131/9
f 72/139/10 70/140/10 66/141/10
f 70/140/10 68/142/10 66/141/10
f 71/143/11 72/144/11 65/129/11
f 72/144/11 66/130/11 65/129/11
f 67/131/12 68/132/12 69/133/12
f 68/132/12 70/134/12 69/133/12
f 73/145/7 74/146/7 75/147/7
f 74/146/7 76/148/7 75/147/7
f 77/149/8 78/150/8 79/151/8
f 78/150/8 80/152/8 79/151/8
f 77/149/9 79/153/9 75/147/9
f 79/153/9 73/154/9 75/147/9
f 80/155/10 78/156/10 74/157/10
f 78/156/10 76/158/10 74/157/10
f 79/159/11 80/160/11 73/145/11
f 80/160/11 74/146/11 73/145/11
f 75/147/12 76/148/12 77/149/12
f 76/148/12 78/150/12 77/149/12
o LeftArm
v 0.198197 0.996591 -0.010525
v 0.372945 0.878789 0.713163
v 0.194104 1.240683 0.030197
v 0.368852 1.122881 0.753885
v 0.380116 1.251015 -0.013038
v 0.554864 1.133213 0.710651
v 0.384209 1.006922 -0.053759
v 0.558957 0.889120 0.669929
v 0.215282 0.784633 -0.037436
v 0.384813 0.670347 0.664650
v 0.211561 1.006535 -0.000416
v 0.381092 0.892250 0.701670
v 0.375689 1.015651 -0.038564
v 0.545221 0.901366 0.663522
v 0.379410 0.793749 -0.075584
v 0.548942 0.679464 0.626502
v 0.211561 1.006535 -0.000416
v 0.381092 0.892250 0.701670
v 0.207840 1.228438 0.036604
v 0.377372 1.114152 0.738690
v 0.371969 1.237554 -0.001544
v 0.541500 1.123268 0.700542
v 0.375689 1.015651 -0.038564
v 0.545221 0.901366 0.663522
vt 0.601562 0.828125
vt 0.601562 0.726562
vt 0.570312 0.828125
vt 0.570312 0.726562
vt 0.546875 0.828125
vt 0.546875 0.726562
vt 0.515625 0.828125
vt 0.515625 0.726562
vt 0.546875 0.859375
vt 0.570312 0.859375
vt 0.570312 0.859375
vt 0.570312 0.828125
vt 0.593750 0.859375
vt 0.593750 0.828125
vt 0.625000 0.828125
vt 0.625000 0.726562
vt 0.710938 0.828125
vt 0.710938 0.726562
vt 0.679688 0.828125
vt 0.679688 0.726562
vt 0.656250 0.828125
vt 0.656250 0.726562
vt 0.625000 0.828125
vt 0.625000 0.726562
vt 0.656250 0.859375
vt 0.679688 0.859375
vt 0.679688 0.859375
vt 0.679688 0.828125
vt 0.703125 0.859375
vt 0.703125 0.828125
vt 0.734375 0.828125
vt 0.734375 0.726562
vt 0.492188 0.828125
vt 0.492188 0.726562
vt 0.460938 0.828125
vt 0.460938 0.726562
vt 0.437500 0.828125
vt 0.437500 0.726562
vt 0.406250 0.828125
vt 0.406250 0.726562
vt 0.437500 0.859375
vt 0.460938 0.859375
vt 0.460938 0.859375
vt 0.460938 0.828125
vt 0.484375 0.859375
vt 0.484375 0.828125
vt 0.515625 0.828125
vt 0.515625 0.726562
vn -0.9726 -0.0540 0.2261
vn 0.9726 0.0540 -0.2261
vn -0.2318 0.1563 -0.9601
vn 0.2318 -0.1563 0.9601
vn 0.0165 -0.9862 -0.1645
vn -0.0165 0.9862 0.1645
usemtl m_2
s 1
f 81/161/13 82/162/13 83/163/13
f 82/162/13 84/164/13 83/163/13
f 85/165/14 86/166/14 87/167/14
f 86/166/14 88/168/14 87/167/14
f 85/165/15 87/169/15 83/163/15
f 87/169/15 81/170/15 83/163/15
f 88/171/16 86/172/16 82/173/16
f 86/172/16 84/174/16 82/173/16
f 87/175/17 88/176/17 81/161/17
f 88/176/17 82/162/17 81/161/17
f 83/163/18 84/164/18 85/165/18
f 84/164/18 86/166/18 85/165/18
f 89/177/13 90/178/13 91/179/13
f 90/178/13 92/180/13 91/179/13
f 93/181/14 94/182/14 95/183/14
f 94/182/14 96/184/14 95/183/14
f 93/181/15 95/185/15 91/179/15
f 95/185/15 89/186/15 91/179/15
f 96/187/16 94/188/16 90/189/16
f 94/188/16 92/190/16 90/189/16
f 95/191/17 96/192/17 89/177/17
f 96/192/17 90/178/17 89/177/17
f 91/179/18 92/180/18 93/181/18
f 92/180/18 94/182/18 93/181/18
f 97/193/13 98/194/13 99/195/13
f 98/194/13 100/196/13 99/195/13
f 101/197/14 102/198/14 103/199/14
f 102/198/14 104/200/14 103/199/14
f 101/197/15 103/201/15 99/195/15
f 103/201/15 97/202/15 99/195/15
f 104/203/16 102/204/16 98/205/16
f 102/204/16 100/206/16 98/205/16
f 103/207/17 104/208/17 97/193/17
f 104/208/17 98/194/17 97/193/17
f 99/195/18 100/196/18 101/197/18
f 100/196/18 102/198/18 101/197/18
o RightArm
v -0.368208 0.996192 -0.045644
v -0.554377 0.932385 0.740085
v -0.359646 1.242561 -0.023608
v -0.545814 1.178753 0.762121
v -0.173633 1.232229 0.019626
v -0.359802 1.168422 0.805355
v -0.182196 0.985861 -0.002409
v -0.368364 0.922053 0.783320
v -0.367247 0.781926 -0.051218
v -0.548244 0.719891 0.712685
v -0.359463 1.005897 -0.031186
v -0.540460 0.943862 0.732717
v -0.195334 0.996781 0.006962
v -0.376331 0.934746 0.770865
v -0.203118 0.772810 -0.013071
v -0.384115 0.710774 0.750832
v -0.359463 1.005897 -0.031186
v -0.540460 0.943862 0.732717
v -0.351678 1.229868 -0.011153
v -0.532676 1.167833 0.752750
v -0.187550 1.220752 0.026994
v -0.368547 1.158717 0.790898
v -0.195334 0.996781 0.006962
v -0.376331 0.934746 0.770865
vt 0.601562 0.968750
vt 0.601562 0.859375
vt 0.570312 0.968750
vt 0.570312 0.859375
vt 0.546875 0.968750
vt 0.546875 0.859375
vt 0.515625 0.968750
vt 0.515625 0.859375
vt 0.546875 1.000000
vt 0.570312 1.000000
vt 0.570312 1.000000
vt 0.570312 0.968750
vt 0.593750 1.000000
vt 0.593750 0.968750
vt 0.625000 0.968750
vt 0.625000 0.859375
vt 0.710938 0.968750
vt 0.710938 0.859375
vt 0.679688 0.968750
vt 0.679688 0.859375
vt 0.656250 0.968750
vt 0.656250 0.859375
vt 0.625000 0.968750
vt 0.625000 0.859375
vt 0.656250 1.000000
vt 0.679688 1.000000
vt 0.679688 1.000000
vt 0.679688 0.968750
vt 0.703125 1.000000
vt 0.703125 0.968750
vt 0.734375 0.968750
vt 0.734375 0.859375
vt 0.492188 0.968750
vt 0.492188 0.859375
vt 0.460938 0.968750
vt 0.460938 0.859375
vt 0.437500 0.968750
vt 0.437500 0.859375
vt 0.406250 0.968750
vt 0.406250 0.859375
vt 0.437500 1.000000
vt 0.460938 1.000000
vt 0.460938 1.000000
vt 0.460938 0.968750
vt 0.484375 1.000000
vt 0.484375 0.968750
vt 0.515625 0.968750
vt 0.515625 0.859375
vn -0.9726 0.0540 -0.2261
vn 0.9726 -0.0540 0.2261
vn 0.2298 0.0788 -0.9700
vn -0.2298 -0.0788 0.9700
vn -0.0346 -0.9954 -0.0890
vn 0.0346 0.9954 0.0890
usemtl m_2
s 1
f 105/209/19 106/210/19 107/211/19
f 106/210/19 108/212/19 107/211/19
f 109/213/20 110/214/20 111/215/20
f 110/214/20 112/216/20 111/215/20
f 109/213/21 111/217/21 107/211/21
f 111/217/21 105/218/21 107/211/21
f 112/219/22 110/220/22 106/221/22
f 110/220/22 108/222/22 106/221/22
f 111/223/23 112/224/23 105/209/23
f 112/224/23 106/210/23 105/209/23
f 107/211/24 108/212/24 109/213/24
f 108/212/24 110/214/24 109/213/24
f 113/225/19 114/226/19 115/227/19
f 114/226/19 116/228/19 115/227/19
f 117/229/20 118/230/20 119/231/20
f 118/230/20 120/232/20 119/231/20
f 117/229/21 119/233/21 115/227/21
f 119/233/21 113/234/21 115/227/21
f 120/235/22 118/236/22 114/237/22
f 118/236/22 116/238/22 114/237/22
f 119/239/23 120/240/23 113/225/23
f 120/240/23 114/226/23 113/225/23
f 115/227/24 116/228/24 117/229/24
f 116/228/24 118/230/24 117/229/24
f 121/241/19 122/242/19 123/243/19
f 122/242/19 124/244/19 123/243/19
f 125/245/20 126/246/20 127/247/20
f 126/246/20 128/248/20 127/247/20
f 125/245/21 127/249/21 123/243/21
f 127/249/21 121/250/21 123/243/21
f 128/251/22 126/252/22 122/253/22
f 126/252/22 124/254/22 122/253/22
f 127/255/23 128/256/23 121/241/23
f 128/256/23 122/242/23 121/241/23
f 123/243/24 124/244/24 125/245/24
f 124/244/24 126/246/24 125/245/24
o LeftLeg
v 0.059867 0.448304 -0.075445
v 0.059867 0.392441 -0.068863
v 0.059867 0.474633 0.148009
v 0.059867 0.418770 0.154592
v 0.284867 0.474633 0.148009
v 0.284867 0.418770 0.154591
v 0.284867 0.448304 -0.075445
v 0.284867 0.392441 -0.068863
v -0.007633 0.675032 -0.170127
v -0.007633 -0.017676 -0.088507
v -0.007633 0.703994 0.075673
v -0.007633 0.011286 0.157293
v 0.239867 0.703994 0.075673
v 0.239867 0.011286 0.157293
v 0.239867 0.675032 -0.170127
v 0.239867 -0.017676 -0.088507
v 0.003617 0.665176 -0.157637
v 0.003617 -0.005187 -0.078651
v 0.003617 0.691505 0.065817
v 0.003617 0.021143 0.144804
v 0.228617 0.691505 0.065817
v 0.228617 0.021143 0.144804
v 0.228617 0.665176 -0.157638
v 0.228617 -0.005187 -0.078651
vt 0.750000 0.695312
vt 0.750000 0.687500
vt 0.718750 0.695312
vt 0.718750 0.687500
vt 0.687500 0.695312
vt 0.687500 0.687500
vt 0.656250 0.695312
vt 0.656250 0.687500
vt 0.687500 0.726562
vt 0.718750 0.726562
vt 0.718750 0.726562
vt 0.718750 0.695312
vt 0.750000 0.726562
vt 0.750000 0.695312
vt 0.781250 0.695312
vt 0.781250 0.687500
vt 0.218750 0.710938
vt 0.218750 0.617188
vt 0.187500 0.710938
vt 0.187500 0.617188
vt 0.156250 0.710938
vt 0.156250 0.617188
vt 0.125000 0.710938
vt 0.125000 0.617188
vt 0.156250 0.742188
vt 0.187500 0.742188
vt 0.187500 0.742188
vt 0.187500 0.710938
vt 0.218750 0.742188
vt 0.218750 0.710938
vt 0.250000 0.710938
vt 0.250000 0.617188
vt 0.093750 0.710938
vt 0.093750 0.617188
vt 0.062500 0.710938
vt 0.062500 0.617188
vt 0.031250 0.710938
vt 0.031250 0.617188
vt 0.000000 0.710938
vt 0.000000 0.617188
vt 0.031250 0.742188
vt 0.062500 0.742188
vt 0.062500 0.742188
vt 0.062500 0.710938
vt 0.093750 0.742188
vt 0.093750 0.710938
vt 0.125000 0.710938
vt 0.125000 0.617188
vn -1.0000 0.0000 0.0000
vn 1.0000 0.0000 -0.0000
vn -0.0000 0.9931 -0.1170
vn 0.0000 -0.9931 0.1170
vn -0.0000 -0.1170 -0.9931
vn 0.0000 0.1170 0.9931
usemtl m_2
s 1
f 129/257/25 130/258/25 131/259/25
f 130/258/25 132/260/25 131/259/25
f 133/261/26 134/262/26 135/263/26
f 134/262/26 136/264/26 135/263/26
f 133/261/27 135/265/27 131/259/27
f 135/265/27 129/266/27 131/259/27
f 136/267/28 134/268/28 130/269/28
f 134/268/28 132/270/28 130/269/28
f 135/271/29 136/272/29 129/257/29
f 136/272/29 130/258/29 129/257/29
f 131/259/30 132/260/30 133/261/30
f 132/260/30 134/262/30 133/261/30
f 137/273/25 138/274/25 139/275/25
f 138/274/25 140/276/25 139/275/25
f 141/277/26 142/278/26 143/279/26
f 142/278/26 144/280/26 143/279/26
f 141/277/27 143/281/27 139/275/27
f 143/281/27 137/282/27 139/275/27
f 144/283/28 142/284/28 138/285/28
f 142/284/28 140/286/28 138/285/28
f 143/287/29 144/288/29 137/273/29
f 144/288/29 138/274/29 137/273/29
f 139/275/30 140/276/30 141/277/30
f 140/276/30 142/278/30 141/277/30
f 145/289/25 146/290/25 147/291/25
f 146/290/25 148/292/25 147/291/25
f 149/293/26 150/294/26 151/295/26
f 150/294/26 152/296/26 151/295/26
f 149/293/27 151/297/27 147/291/27
f 151/297/27 145/298/27 147/291/27
f 152/299/28 150/300/28 146/301/28
f 150/300/28 148/302/28 146/301/28
f 151/303/29 152/304/29 145/289/29
f 152/304/29 146/290/29 145/289/29
f 147/291/30 148/292/30 149/293/30
f 148/292/30 150/294/30 149/293/30
o RightLeg
v -0.378883 0.267619 -0.133634
v -0.378883 0.211541 -0.138028
v -0.378883 0.245651 0.146757
v -0.378883 0.189572 0.142363
v -0.097633 0.245651 0.146757
v -0.097633 0.189572 0.142363
v -0.097633 0.267619 -0.133634
v -0.097633 0.211541 -0.138028
v -0.294508 0.418799 -0.262845
v -0.294508 0.362721 -0.267239
v -0.294508 0.401224 -0.038533
v -0.294508 0.345146 -0.042926
v -0.069508 0.401224 -0.038533
v -0.069508 0.345146 -0.042926
v -0.069508 0.418799 -0.262845
v -0.069508 0.362721 -0.267239
v -0.221383 0.704693 -0.167096
v -0.221383 0.009325 -0.221578
v -0.221383 0.685361 0.079648
v -0.221383 -0.010008 0.025165
v 0.026117 0.685361 0.079648
v 0.026117 -0.010008 0.025165
v 0.026117 0.704693 -0.167096
v 0.026117 0.009325 -0.221579
v -0.210133 0.692599 -0.156759
v -0.210133 0.019661 -0.209484
v -0.210133 0.675024 0.067553
v -0.210133 0.002086 0.014828
v 0.014867 0.675024 0.067553
v 0.014867 0.002086 0.014828
v 0.014867 0.692599 -0.156759
v 0.014867 0.019661 -0.209484
vt 0.742188 0.648438
vt 0.742188 0.640625
vt 0.703125 0.648438
vt 0.703125 0.640625
vt 0.664062 0.648438
vt 0.664062 0.640625
vt 0.625000 0.648438
vt 0.625000 0.640625
vt 0.664062 0.687500
vt 0.703125 0.687500
vt 0.703125 0.687500
vt 0.703125 0.648438
vt 0.742188 0.687500
vt 0.742188 0.648438
vt 0.781250 0.648438
vt 0.781250 0.640625
vt 0.750000 0.695312
vt 0.750000 0.687500
vt 0.718750 0.695312
vt 0.718750 0.687500
vt 0.687500 0.695312
vt 0.687500 0.687500
vt 0.656250 0.695312
vt 0.656250 0.687500
vt 0.687500 0.726562
vt 0.718750 0.726562
vt 0.718750 0.726562
vt 0.718750 0.695312
vt 0.750000 0.726562
vt 0.750000 0.695312
vt 0.781250 0.695312
vt 0.781250 0.687500
vt 0.218750 0.835938
vt 0.218750 0.742188
vt 0.187500 0.835938
vt 0.187500 0.742188
vt 0.156250 0.835938
vt 0.156250 0.742188
vt 0.125000 0.835938
vt 0.125000 0.742188
vt 0.156250 0.867188
vt 0.187500 0.867188
vt 0.187500 0.867188
vt 0.187500 0.835938
vt 0.218750 0.867188
vt 0.218750 0.835938
vt 0.250000 0.835938
vt 0.250000 0.742188
vt 0.093750 0.835938
vt 0.093750 0.742188
vt 0.062500 0.835938
vt 0.062500 0.742188
vt 0.031250 0.835938
vt 0.031250 0.742188
vt 0.000000 0.835938
vt 0.000000 0.742188
vt 0.031250 0.867188
vt 0.062500 0.867188
vt 0.062500 0.867188
vt 0.062500 0.835938
vt 0.093750 0.867188
vt 0.093750 0.835938
vt 0.125000 0.835938
vt 0.125000 0.742188
vn -1.0000 0.0000 0.0000
vn 1.0000 -0.0000 -0.0000
vn 0.0000 0.9969 0.0781
vn 0.0000 -0.9969 -0.0781
vn -0.0000 0.0781 -0.9969
vn 0.0000 -0.0781 0.9969
usemtl m_2
s 1
f 153/305/31 154/306/31 155/307/31
f 154/306/31 156/308/31 155/307/31
f 157/309/32 158/310/32 159/311/32
f 158/310/32 160/312/32 159/311/32
f 157/309/33 159/313/33 155/307/33
f 159/313/33 153/314/33 155/307/33
f 160/315/34 158/316/34 154/317/34
f 158/316/34 156/318/34 154/317/34
f 159/319/35 160/320/35 153/305/35
f 160/320/35 154/306/35 153/305/35
f 155/307/36 156/308/36 157/309/36
f 156/308/36 158/310/36 157/309/36
f 161/321/31 162/322/31 163/323/31
f 162/322/31 164/324/31 163/323/31
f 165/325/32 166/326/32 167/327/32
f 166/326/32 168/328/32 167/327/32
f 165/325/33 167/329/33 163/323/33
f 167/329/33 161/330/33 163/323/33
f 168/331/34 166/332/34 162/333/34
f 166/332/34 164/334/34 162/333/34
f 167/335/35 168/336/35 161/321/35
f 168/336/35 162/322/35 161/321/35
f 163/323/36 164/324/36 165/325/36
f 164/324/36 166/326/36 165/325/36
f 169/337/31 170/338/31 171/339/31
f 170/338/31 172/340/31 171/339/31
f 173/341/32 174/342/32 175/343/32
f 174/342/32 176/344/32 175/343/32
f 173/341/33 175/345/33 171/339/33
f 175/345/33 169/346/33 171/339/33
f 176/347/34 174/348/34 170/349/34
f 174/348/34 172/350/34 170/349/34
f 175/351/35 176/352/35 169/337/35
f 176/352/35 170/338/35 169/337/35
f 171/339/36 172/340/36 173/341/36
f 172/340/36 174/342/36 173/341/36
f 177/353/31 178/354/31 179/355/31
f 178/354/31 180/356/31 179/355/31
f 181/357/32 182/358/32 183/359/32
f 182/358/32 184/360/32 183/359/32
f 181/357/33 183/361/33 179/355/33
f 183/361/33 177/362/33 179/355/33
f 184/363/34 182/364/34 178/365/34
f 182/364/34 180/366/34 178/365/34
f 183/367/35 184/368/35 177/353/35
f 184/368/35 178/354/35 177/353/35
f 179/355/36 180/356/36 181/357/36
f 180/356/36 182/358/36 181/357/36
