# Blender v2.82 (sub 7) OBJ File: 'grigori.blend'
# www.blender.org
mtllib grigori.mtl
o Body
v -0.575000 1.108165 0.021928
v -0.575000 0.599932 -0.486305
v -0.575000 0.599932 0.530161
v -0.575000 0.091699 0.021928
v 0.575000 0.599932 0.530161
v 0.575000 0.091699 0.021928
v 0.575000 1.108165 0.021927
v 0.575000 0.599932 -0.486305
v -0.467188 1.260635 0.021928
v -0.467188 0.599932 -0.638775
v -0.467187 0.599932 0.682631
v -0.467188 -0.060771 0.021928
v 0.467188 0.599932 0.682631
v 0.467188 -0.060771 0.021928
v 0.467188 1.260635 0.021927
v 0.467187 0.599932 -0.638775
v -0.431250 1.209811 0.021928
v -0.431250 0.599932 -0.587952
v -0.431250 0.599932 0.631807
v -0.431250 -0.009948 0.021928
v 0.431250 0.599932 0.631807
v 0.431250 -0.009948 0.021928
v 0.431250 1.209811 0.021927
v 0.431250 0.599932 -0.587952
vt 0.000000 0.734375
vt 0.000000 0.656250
vt 0.078125 0.734375
vt 0.078125 0.656250
vt 0.203125 0.734375
vt 0.203125 0.656250
vt 0.281250 0.734375
vt 0.281250 0.656250
vt 0.203125 0.812500
vt 0.078125 0.812500
vt 0.328125 0.812500
vt 0.328125 0.734375
vt 0.203125 0.812500
vt 0.203125 0.734375
vt 0.406250 0.734375
vt 0.406250 0.656250
vt 0.000000 0.562500
vt 0.000000 0.468750
vt 0.093750 0.562500
vt 0.093750 0.468750
vt 0.187500 0.562500
vt 0.187500 0.468750
vt 0.281250 0.562500
vt 0.281250 0.468750
vt 0.187500 0.656250
vt 0.093750 0.656250
vt 0.281250 0.656250
vt 0.281250 0.562500
vt 0.187500 0.656250
vt 0.187500 0.562500
vt 0.375000 0.562500
vt 0.375000 0.468750
vt 0.000000 0.906250
vt 0.000000 0.812500
vt 0.093750 0.906250
vt 0.093750 0.812500
vt 0.187500 0.906250
vt 0.187500 0.812500
vt 0.281250 0.906250
vt 0.281250 0.812500
vt 0.187500 1.000000
vt 0.093750 1.000000
vt 0.281250 1.000000
vt 0.281250 0.906250
vt 0.187500 1.000000
vt 0.187500 0.906250
vt 0.375000 0.906250
vt 0.375000 0.812500
vn -1.0000 0.0000 0.0000
vn 1.0000 0.0000 0.0000
vn 0.0000 0.7071 0.7071
vn 0.0000 -0.7071 -0.7071
vn -0.0000 0.7071 -0.7071
vn 0.0000 -0.7071 0.7071
usemtl m_0
s 1
f 1/1/1 2/2/1 3/3/1
f 2/2/1 4/4/1 3/3/1
f 5/5/2 6/6/2 7/7/2
f 6/6/2 8/8/2 7/7/2
f 5/5/3 7/9/3 3/3/3
f 7/9/3 1/10/3 3/3/3
f 8/11/4 6/12/4 2/13/4
f 6/12/4 4/14/4 2/13/4
f 7/7/5 8/8/5 1/15/5
f 8/8/5 2/16/5 1/15/5
f 3/3/6 4/4/6 5/5/6
f 4/4/6 6/6/6 5/5/6
f 9/17/1 10/18/1 11/19/1
f 10/18/1 12/20/1 11/19/1
f 13/21/2 14/22/2 15/23/2
f 14/22/2 16/24/2 15/23/2
f 13/21/3 15/25/3 11/19/3
f 15/25/3 9/26/3 11/19/3
f 16/27/4 14/28/4 10/29/4
f 14/28/4 12/30/4 10/29/4
f 15/23/5 16/24/5 9/31/5
f 16/24/5 10/32/5 9/31/5
f 11/19/6 12/20/6 13/21/6
f 12/20/6 14/22/6 13/21/6
f 17/33/1 18/34/1 19/35/1
f 18/34/1 20/36/1 19/35/1
f 21/37/2 22/38/2 23/39/2
f 22/38/2 24/40/2 23/39/2
f 21/37/3 23/41/3 19/35/3
f 23/41/3 17/42/3 19/35/3
f 24/43/4 22/44/4 18/45/4
f 22/44/4 20/46/4 18/45/4
f 23/39/5 24/40/5 17/47/5
f 24/40/5 18/48/5 17/47/5
f 19/35/6 20/36/6 21/37/6
f 20/36/6 22/38/6 21/37/6
o MouthBottom
v -0.502406 0.668890 -0.025098
v -0.502406 0.317769 -0.094622
v -0.502406 0.543524 0.608048
v -0.502406 0.192403 0.538524
v 0.502406 0.543524 0.608047
v 0.502406 0.192403 0.538524
v 0.502406 0.668890 -0.025098
v 0.502406 0.317769 -0.094622
vt 0.375000 0.820312
vt 0.375000 0.781250
vt 0.445312 0.820312
vt 0.445312 0.781250
vt 0.554688 0.820312
vt 0.554688 0.781250
vt 0.625000 0.820312
vt 0.625000 0.781250
vt 0.554688 0.890625
vt 0.445312 0.890625
vt 0.664062 0.890625
vt 0.664062 0.820312
vt 0.554688 0.890625
vt 0.554688 0.820312
vt 0.734375 0.820312
vt 0.734375 0.781250
vn -1.0000 -0.0000 0.0000
vn 1.0000 0.0000 -0.0000
vn 0.0000 0.9810 0.1942
vn -0.0000 -0.9810 -0.1942
vn -0.0000 0.1942 -0.9810
vn 0.0000 -0.1942 0.9810
usemtl m_0
s 1
f 25/49/7 26/50/7 27/51/7
f 26/50/7 28/52/7 27/51/7
f 29/53/8 30/54/8 31/55/8
f 30/54/8 32/56/8 31/55/8
f 29/53/9 31/57/9 27/51/9
f 31/57/9 25/58/9 27/51/9
f 32/59/10 30/60/10 26/61/10
f 30/60/10 28/62/10 26/61/10
f 31/55/11 32/56/11 25/63/11
f 32/56/11 26/64/11 25/63/11
f 27/51/12 28/52/12 29/53/12
f 28/52/12 30/54/12 29/53/12
o MouthTop
v -0.503125 0.898950 -0.084093
v -0.503125 0.543961 -0.028122
v -0.503125 0.999698 0.554888
v -0.503125 0.644709 0.610859
v 0.503125 0.999698 0.554888
v 0.503125 0.644709 0.610859
v 0.503125 0.898950 -0.084093
v 0.503125 0.543961 -0.028122
vt 0.375000 0.929688
vt 0.375000 0.890625
vt 0.445312 0.929688
vt 0.445312 0.890625
vt 0.554688 0.929688
vt 0.554688 0.890625
vt 0.625000 0.929688
vt 0.625000 0.890625
vt 0.554688 1.000000
vt 0.445312 1.000000
vt 0.664062 1.000000
vt 0.664062 0.929688
vt 0.554688 1.000000
vt 0.554688 0.929688
vt 0.734375 0.929688
vt 0.734375 0.890625
vn -1.0000 0.0000 0.0000
vn 1.0000 0.0000 -0.0000
vn -0.0000 0.9878 -0.1557
vn 0.0000 -0.9878 0.1557
vn -0.0000 -0.1557 -0.9878
vn 0.0000 0.1557 0.9878
usemtl m_0
s 1
f 33/65/13 34/66/13 35/67/13
f 34/66/13 36/68/13 35/67/13
f 37/69/14 38/70/14 39/71/14
f 38/70/14 40/72/14 39/71/14
f 37/69/15 39/73/15 35/67/15
f 39/73/15 33/74/15 35/67/15
f 40/75/16 38/76/16 34/77/16
f 38/76/16 36/78/16 34/77/16
f 39/71/17 40/72/17 33/79/17
f 40/72/17 34/80/17 33/79/17
f 35/67/18 36/68/18 37/69/18
f 36/68/18 38/70/18 37/69/18
