# Blender v2.82 (sub 7) OBJ File: 'nymph.blend'
# www.blender.org
mtllib nymph.mtl
o ArmLeft
v 0.268906 1.508491 0.014550
v 0.120794 1.383357 -0.034484
v 0.230151 1.497736 0.159058
v 0.082040 1.372602 0.110023
v 0.447270 1.225862 0.197052
v 0.299159 1.100727 0.148018
v 0.486025 1.236616 0.052544
v 0.337913 1.111482 0.003510
v 0.400615 1.267435 0.028116
v 0.305770 0.882623 -0.025959
v 0.351006 1.259799 0.169469
v 0.256161 0.874987 0.115394
v 0.670715 1.165945 0.276603
v 0.575870 0.781133 0.222528
v 0.720324 1.173581 0.135250
v 0.625479 0.788769 0.081175
vt 0.234375 0.976562
vt 0.234375 0.945312
vt 0.257812 0.976562
vt 0.257812 0.945312
vt 0.312500 0.976562
vt 0.312500 0.945312
vt 0.335938 0.976562
vt 0.335938 0.945312
vt 0.312500 1.000000
vt 0.257812 1.000000
vt 0.367188 1.000000
vt 0.367188 0.976562
vt 0.312500 1.000000
vt 0.312500 0.976562
vt 0.390625 0.976562
vt 0.390625 0.945312
vt 0.234375 0.921875
vt 0.234375 0.859375
vt 0.257812 0.921875
vt 0.257812 0.859375
vt 0.312500 0.921875
vt 0.312500 0.859375
vt 0.335938 0.921875
vt 0.335938 0.859375
vt 0.312500 0.945312
vt 0.257812 0.945312
vt 0.367188 0.945312
vt 0.367188 0.921875
vt 0.312500 0.945312
vt 0.312500 0.921875
vt 0.390625 0.921875
vt 0.390625 0.859375
vn -0.6203 0.7768 -0.1086
vn 0.6203 -0.7768 0.1086
vn 0.7406 0.6257 0.2452
vn -0.7406 -0.6257 -0.2452
vn 0.2584 0.0717 -0.9634
vn -0.2584 -0.0717 0.9634
vn -0.9135 0.2682 -0.3061
vn 0.9135 -0.2682 0.3061
vn 0.2371 0.9620 0.1352
vn -0.2371 -0.9620 -0.1352
vn 0.3307 0.0509 -0.9424
vn -0.3307 -0.0509 0.9424
usemtl m_2
s 1
f 1/1/1 2/2/1 3/3/1
f 2/2/1 4/4/1 3/3/1
f 5/5/2 6/6/2 7/7/2
f 6/6/2 8/8/2 7/7/2
f 5/5/3 7/9/3 3/3/3
f 7/9/3 1/10/3 3/3/3
f 8/11/4 6/12/4 2/13/4
f 6/12/4 4/14/4 2/13/4
f 7/7/5 8/8/5 1/15/5
f 8/8/5 2/16/5 1/15/5
f 3/3/6 4/4/6 5/5/6
f 4/4/6 6/6/6 5/5/6
f 9/17/7 10/18/7 11/19/7
f 10/18/7 12/20/7 11/19/7
f 13/21/8 14/22/8 15/23/8
f 14/22/8 16/24/8 15/23/8
f 13/21/9 15/25/9 11/19/9
f 15/25/9 9/26/9 11/19/9
f 16/27/10 14/28/10 10/29/10
f 14/28/10 12/30/10 10/29/10
f 15/23/11 16/24/11 9/31/11
f 16/24/11 10/32/11 9/31/11
f 11/19/12 12/20/12 13/21/12
f 12/20/12 14/22/12 13/21/12
o ArmRight
v -0.486018 1.236616 0.052544
v -0.337906 1.111482 0.003510
v -0.447263 1.225862 0.197052
v -0.299151 1.100727 0.148018
v -0.230144 1.497736 0.159058
v -0.082032 1.372602 0.110023
v -0.268899 1.508491 0.014550
v -0.120787 1.383357 -0.034484
v -0.720317 1.173581 0.135251
v -0.625472 0.788769 0.081176
v -0.670708 1.165945 0.276604
v -0.575863 0.781133 0.222528
v -0.350999 1.259799 0.169469
v -0.256154 0.874987 0.115394
v -0.400608 1.267435 0.028116
v -0.305763 0.882623 -0.025959
vt 0.335938 0.976562
vt 0.335938 0.945312
vt 0.312500 0.976562
vt 0.312500 0.945312
vt 0.257812 0.976562
vt 0.257812 0.945312
vt 0.234375 0.976562
vt 0.234375 0.945312
vt 0.257812 1.000000
vt 0.312500 1.000000
vt 0.312500 1.000000
vt 0.312500 0.976562
vt 0.367188 1.000000
vt 0.367188 0.976562
vt 0.390625 0.976562
vt 0.390625 0.945312
vt 0.335938 0.921875
vt 0.335938 0.859375
vt 0.312500 0.921875
vt 0.312500 0.859375
vt 0.257812 0.921875
vt 0.257812 0.859375
vt 0.234375 0.921875
vt 0.234375 0.859375
vt 0.257812 0.945312
vt 0.312500 0.945312
vt 0.312500 0.945312
vt 0.312500 0.921875
vt 0.367188 0.945312
vt 0.367188 0.921875
vt 0.390625 0.921875
vt 0.390625 0.859375
vn -0.6203 -0.7768 0.1086
vn 0.6203 0.7768 -0.1086
vn -0.7406 0.6257 0.2452
vn 0.7406 -0.6257 -0.2452
vn -0.2584 0.0717 -0.9634
vn 0.2584 -0.0717 0.9634
vn -0.9135 -0.2682 0.3061
vn 0.9135 0.2682 -0.3061
vn -0.2371 0.9620 0.1352
vn 0.2371 -0.9620 -0.1352
vn -0.3307 0.0509 -0.9424
vn 0.3307 -0.0509 0.9424
usemtl m_2
s 1
f 17/33/13 18/34/13 19/35/13
f 18/34/13 20/36/13 19/35/13
f 21/37/14 22/38/14 23/39/14
f 22/38/14 24/40/14 23/39/14
f 21/37/15 23/41/15 19/35/15
f 23/41/15 17/42/15 19/35/15
f 24/43/16 22/44/16 18/45/16
f 22/44/16 20/46/16 18/45/16
f 23/47/17 24/48/17 17/33/17
f 24/48/17 18/34/17 17/33/17
f 19/35/18 20/36/18 21/37/18
f 20/36/18 22/38/18 21/37/18
f 25/49/19 26/50/19 27/51/19
f 26/50/19 28/52/19 27/51/19
f 29/53/20 30/54/20 31/55/20
f 30/54/20 32/56/20 31/55/20
f 29/53/21 31/57/21 27/51/21
f 31/57/21 25/58/21 27/51/21
f 32/59/22 30/60/22 26/61/22
f 30/60/22 28/62/22 26/61/22
f 31/63/23 32/64/23 25/49/23
f 32/64/23 26/50/23 25/49/23
f 27/51/24 28/52/24 29/53/24
f 28/52/24 30/54/24 29/53/24
o Body
v -0.224996 1.461448 -0.077996
v -0.224996 1.061754 -0.062362
v -0.224996 1.473174 0.221775
v -0.224996 1.073479 0.237409
v 0.225004 1.473174 0.221775
v 0.225004 1.073479 0.237409
v 0.225004 1.461448 -0.077996
v 0.225004 1.061754 -0.062362
v -0.199996 1.117616 -0.037476
v -0.199996 0.767616 -0.037476
v -0.199996 1.117617 0.212524
v -0.199996 0.767616 0.212524
v 0.200004 1.117617 0.212524
v 0.200004 0.767616 0.212524
v 0.200004 1.117616 -0.037476
v 0.200004 0.767616 -0.037476
v -0.174996 0.771525 -0.012400
v -0.174996 -0.227711 -0.051485
v -0.174996 0.763708 0.187447
v -0.174996 -0.235528 0.148362
v 0.175004 0.763708 0.187447
v 0.175004 -0.235528 0.148362
v 0.175004 0.771525 -0.012400
v 0.175004 -0.227711 -0.051485
v -0.259583 0.811671 0.013756
v -0.371644 0.072393 0.072160
v -0.237308 0.827924 0.262231
v -0.349369 0.088647 0.320635
v 0.058117 0.781292 0.238797
v -0.053943 0.042015 0.297202
v 0.035843 0.765038 -0.009677
v -0.076218 0.025761 0.048727
v -0.035835 0.765038 -0.009677
v 0.076225 0.025761 0.048727
v -0.058110 0.781292 0.238797
v 0.053951 0.042015 0.297202
v 0.237316 0.827924 0.262231
v 0.349376 0.088647 0.320635
v 0.259590 0.811671 0.013756
v 0.371651 0.072393 0.072160
v -0.240470 0.831890 -0.079079
v -0.371382 0.002531 -0.211462
v -0.246541 0.793430 0.167870
v -0.377453 -0.035929 0.035487
v 0.049790 0.746655 0.167870
v -0.081122 -0.082704 0.035487
v 0.055861 0.785115 -0.079079
v -0.075051 -0.044244 -0.211462
v -0.055854 0.785115 -0.079079
v 0.075059 -0.044244 -0.211462
v -0.049783 0.746655 0.167870
v 0.081129 -0.082704 0.035487
v 0.246548 0.793430 0.167870
v 0.377461 -0.035929 0.035487
v 0.240477 0.831890 -0.079079
v 0.371390 0.002531 -0.211462
vt 0.000000 0.953125
vt 0.000000 0.890625
vt 0.046875 0.953125
vt 0.046875 0.890625
vt 0.117188 0.953125
vt 0.117188 0.890625
vt 0.164062 0.953125
vt 0.164062 0.890625
vt 0.117188 1.000000
vt 0.046875 1.000000
vt 0.187500 1.000000
vt 0.187500 0.953125
vt 0.117188 1.000000
vt 0.117188 0.953125
vt 0.234375 0.953125
vt 0.234375 0.890625
vt 0.390625 0.960938
vt 0.390625 0.906250
vt 0.429688 0.960938
vt 0.429688 0.906250
vt 0.492188 0.960938
vt 0.492188 0.906250
vt 0.531250 0.960938
vt 0.531250 0.906250
vt 0.492188 1.000000
vt 0.429688 1.000000
vt 0.554688 1.000000
vt 0.554688 0.960938
vt 0.492188 1.000000
vt 0.492188 0.960938
vt 0.593750 0.960938
vt 0.593750 0.906250
vt 0.593750 0.968750
vt 0.593750 0.812500
vt 0.625000 0.968750
vt 0.625000 0.812500
vt 0.679688 0.968750
vt 0.679688 0.812500
vt 0.710938 0.968750
vt 0.710938 0.812500
vt 0.679688 1.000000
vt 0.625000 1.000000
vt 0.734375 1.000000
vt 0.734375 0.968750
vt 0.679688 1.000000
vt 0.679688 0.968750
vt 0.765625 0.968750
vt 0.765625 0.812500
vt 0.546875 0.867188
vt 0.546875 0.750000
vt 0.507812 0.867188
vt 0.507812 0.750000
vt 0.460938 0.867188
vt 0.460938 0.750000
vt 0.421875 0.867188
vt 0.421875 0.750000
vt 0.460938 0.906250
vt 0.507812 0.906250
vt 0.507812 0.906250
vt 0.507812 0.867188
vt 0.554688 0.906250
vt 0.554688 0.867188
vt 0.593750 0.867188
vt 0.593750 0.750000
vt 0.421875 0.867188
vt 0.421875 0.750000
vt 0.460938 0.867188
vt 0.460938 0.750000
vt 0.507812 0.867188
vt 0.507812 0.750000
vt 0.546875 0.867188
vt 0.546875 0.750000
vt 0.507812 0.906250
vt 0.460938 0.906250
vt 0.554688 0.906250
vt 0.554688 0.867188
vt 0.507812 0.906250
vt 0.507812 0.867188
vt 0.593750 0.867188
vt 0.593750 0.750000
vt 0.562500 0.710938
vt 0.562500 0.578125
vt 0.523438 0.710938
vt 0.523438 0.578125
vt 0.476562 0.710938
vt 0.476562 0.578125
vt 0.437500 0.710938
vt 0.437500 0.578125
vt 0.476562 0.750000
vt 0.523438 0.750000
vt 0.523438 0.750000
vt 0.523438 0.710938
vt 0.570312 0.750000
vt 0.570312 0.710938
vt 0.609375 0.710938
vt 0.609375 0.578125
vt 0.437500 0.710938
vt 0.437500 0.578125
vt 0.476562 0.710938
vt 0.476562 0.578125
vt 0.523438 0.710938
vt 0.523438 0.578125
vt 0.562500 0.710938
vt 0.562500 0.578125
vt 0.523438 0.750000
vt 0.476562 0.750000
vt 0.570312 0.750000
vt 0.570312 0.710938
vt 0.523438 0.750000
vt 0.523438 0.710938
vt 0.609375 0.710938
vt 0.609375 0.578125
vn -1.0000 -0.0000 0.0000
vn 1.0000 -0.0000 -0.0000
vn -0.0000 0.9992 -0.0391
vn 0.0000 -0.9992 0.0391
vn -0.0000 -0.0391 -0.9992
vn 0.0000 0.0391 0.9992
vn -0.0000 1.0000 0.0000
vn 0.0000 -1.0000 -0.0000
vn -0.0000 -0.0000 -1.0000
vn 0.0000 0.0000 1.0000
vn 0.0000 0.9992 0.0391
vn -0.0000 -0.9992 -0.0391
vn -0.0000 0.0391 -0.9992
vn 0.0000 -0.0391 0.9992
vn -0.9848 0.1554 0.0781
vn 0.9848 -0.1554 -0.0781
vn 0.1494 0.9857 -0.0779
vn -0.1494 -0.9857 0.0779
vn -0.0891 -0.0650 -0.9939
vn 0.0891 0.0650 0.9939
vn -0.9848 -0.1554 -0.0781
vn 0.9848 0.1554 0.0781
vn -0.1494 0.9857 -0.0779
vn 0.1494 -0.9857 0.0779
vn 0.0891 -0.0650 -0.9939
vn -0.0891 0.0650 0.9939
vn -0.9878 0.1559 0.0000
vn 0.9878 -0.1559 -0.0000
vn 0.1540 0.9757 0.1557
vn -0.1540 -0.9757 -0.1557
vn 0.0243 0.1538 -0.9878
vn -0.0243 -0.1538 0.9878
vn -0.9878 -0.1559 0.0000
vn 0.9878 0.1559 -0.0000
vn -0.1540 0.9757 0.1557
vn 0.1540 -0.9757 -0.1557
vn -0.0243 0.1538 -0.9878
vn 0.0243 -0.1538 0.9878
usemtl m_2
s 1
f 33/65/25 34/66/25 35/67/25
f 34/66/25 36/68/25 35/67/25
f 37/69/26 38/70/26 39/71/26
f 38/70/26 40/72/26 39/71/26
f 37/69/27 39/73/27 35/67/27
f 39/73/27 33/74/27 35/67/27
f 40/75/28 38/76/28 34/77/28
f 38/76/28 36/78/28 34/77/28
f 39/71/29 40/72/29 33/79/29
f 40/72/29 34/80/29 33/79/29
f 35/67/30 36/68/30 37/69/30
f 36/68/30 38/70/30 37/69/30
f 41/81/25 42/82/25 43/83/25
f 42/82/25 44/84/25 43/83/25
f 45/85/26 46/86/26 47/87/26
f 46/86/26 48/88/26 47/87/26
f 45/85/31 47/89/31 43/83/31
f 47/89/31 41/90/31 43/83/31
f 48/91/32 46/92/32 42/93/32
f 46/92/32 44/94/32 42/93/32
f 47/87/33 48/88/33 41/95/33
f 48/88/33 42/96/33 41/95/33
f 43/83/34 44/84/34 45/85/34
f 44/84/34 46/86/34 45/85/34
f 49/97/25 50/98/25 51/99/25
f 50/98/25 52/100/25 51/99/25
f 53/101/26 54/102/26 55/103/26
f 54/102/26 56/104/26 55/103/26
f 53/101/35 55/105/35 51/99/35
f 55/105/35 49/106/35 51/99/35
f 56/107/36 54/108/36 50/109/36
f 54/108/36 52/110/36 50/109/36
f 55/103/37 56/104/37 49/111/37
f 56/104/37 50/112/37 49/111/37
f 51/99/38 52/100/38 53/101/38
f 52/100/38 54/102/38 53/101/38
f 57/113/39 58/114/39 59/115/39
f 58/114/39 60/116/39 59/115/39
f 61/117/40 62/118/40 63/119/40
f 62/118/40 64/120/40 63/119/40
f 61/117/41 63/121/41 59/115/41
f 63/121/41 57/122/41 59/115/41
f 64/123/42 62/124/42 58/125/42
f 62/124/42 60/126/42 58/125/42
f 63/127/43 64/128/43 57/113/43
f 64/128/43 58/114/43 57/113/43
f 59/115/44 60/116/44 61/117/44
f 60/116/44 62/118/44 61/117/44
f 65/129/45 66/130/45 67/131/45
f 66/130/45 68/132/45 67/131/45
f 69/133/46 70/134/46 71/135/46
f 70/134/46 72/136/46 71/135/46
f 69/133/47 71/137/47 67/131/47
f 71/137/47 65/138/47 67/131/47
f 72/139/48 70/140/48 66/141/48
f 70/140/48 68/142/48 66/141/48
f 71/135/49 72/136/49 65/143/49
f 72/136/49 66/144/49 65/143/49
f 67/131/50 68/132/50 69/133/50
f 68/132/50 70/134/50 69/133/50
f 73/145/51 74/146/51 75/147/51
f 74/146/51 76/148/51 75/147/51
f 77/149/52 78/150/52 79/151/52
f 78/150/52 80/152/52 79/151/52
f 77/149/53 79/153/53 75/147/53
f 79/153/53 73/154/53 75/147/53
f 80/155/54 78/156/54 74/157/54
f 78/156/54 76/158/54 74/157/54
f 79/159/55 80/160/55 73/145/55
f 80/160/55 74/146/55 73/145/55
f 75/147/56 76/148/56 77/149/56
f 76/148/56 78/150/56 77/149/56
f 81/161/57 82/162/57 83/163/57
f 82/162/57 84/164/57 83/163/57
f 85/165/58 86/166/58 87/167/58
f 86/166/58 88/168/58 87/167/58
f 85/165/59 87/169/59 83/163/59
f 87/169/59 81/170/59 83/163/59
f 88/171/60 86/172/60 82/173/60
f 86/172/60 84/174/60 82/173/60
f 87/167/61 88/168/61 81/175/61
f 88/168/61 82/176/61 81/175/61
f 83/163/62 84/164/62 85/165/62
f 84/164/62 86/166/62 85/165/62
o Head
v -0.199996 1.881711 -0.096255
v -0.199996 1.482933 -0.127499
v -0.199996 1.850467 0.302523
v -0.199996 1.451689 0.271278
v 0.200004 1.850467 0.302523
v 0.200004 1.451689 0.271278
v 0.200004 1.881711 -0.096255
v 0.200004 1.482933 -0.127499
v -0.355053 1.787998 -0.002023
v -0.354056 1.646281 -0.051167
v -0.355096 1.787990 -0.001999
v -0.354099 1.646272 -0.051142
v -0.199996 1.704830 0.240959
v -0.198999 1.563112 0.191815
v -0.199954 1.704839 0.240935
v -0.198956 1.563121 0.191791
v 0.199961 1.704839 0.240935
v 0.198964 1.563121 0.191791
v 0.200004 1.704830 0.240959
v 0.199007 1.563112 0.191815
v 0.355103 1.787990 -0.001999
v 0.354106 1.646272 -0.051143
v 0.355061 1.787998 -0.002023
v 0.354064 1.646281 -0.051167
v -0.043780 1.880279 -0.119939
v 0.003087 1.283940 -0.166663
v -0.043780 1.845129 0.328686
v 0.003087 1.248790 0.281962
v 0.205456 1.864597 0.330211
v 0.252323 1.268258 0.283488
v 0.205456 1.899747 -0.118414
v 0.252323 1.303408 -0.165137
v -0.205449 1.899865 -0.119909
v -0.252316 1.303525 -0.166633
v -0.205449 1.864715 0.328716
v -0.252316 1.268376 0.281992
v 0.043787 1.845247 0.327190
v -0.003080 1.248907 0.280467
v 0.043787 1.880397 -0.121435
v -0.003080 1.284057 -0.168158
vt 0.000000 0.828125
vt 0.000000 0.765625
vt 0.062500 0.828125
vt 0.062500 0.765625
vt 0.125000 0.828125
vt 0.125000 0.765625
vt 0.187500 0.828125
vt 0.187500 0.765625
vt 0.125000 0.890625
vt 0.062500 0.890625
vt 0.187500 0.890625
vt 0.187500 0.828125
vt 0.125000 0.890625
vt 0.125000 0.828125
vt 0.250000 0.828125
vt 0.250000 0.765625
vt 0.781250 1.000000
vt 0.781250 0.976562
vt 0.781250 1.000000
vt 0.781250 0.976562
vt 0.734375 1.000000
vt 0.734375 0.976562
vt 0.734375 1.000000
vt 0.734375 0.976562
vt 0.781250 1.000000
vt 0.781250 1.000000
vt 0.828125 1.000000
vt 0.828125 1.000000
vt 0.828125 1.000000
vt 0.828125 0.976562
vt 0.734375 1.000000
vt 0.734375 0.976562
vt 0.734375 1.000000
vt 0.734375 0.976562
vt 0.781250 1.000000
vt 0.781250 0.976562
vt 0.781250 1.000000
vt 0.781250 0.976562
vt 0.828125 1.000000
vt 0.828125 1.000000
vt 0.781250 1.000000
vt 0.781250 1.000000
vt 0.828125 1.000000
vt 0.828125 0.976562
vt 0.398438 0.695312
vt 0.398438 0.601562
vt 0.328125 0.695312
vt 0.328125 0.601562
vt 0.289062 0.695312
vt 0.289062 0.601562
vt 0.218750 0.695312
vt 0.218750 0.601562
vt 0.289062 0.765625
vt 0.328125 0.765625
vt 0.328125 0.765625
vt 0.328125 0.695312
vt 0.367188 0.765625
vt 0.367188 0.695312
vt 0.437500 0.695312
vt 0.437500 0.601562
vt 0.179688 0.695312
vt 0.179688 0.601562
vt 0.109375 0.695312
vt 0.109375 0.601562
vt 0.070312 0.695312
vt 0.070312 0.601562
vt 0.000000 0.695312
vt 0.000000 0.601562
vt 0.070312 0.765625
vt 0.109375 0.765625
vt 0.109375 0.765625
vt 0.109375 0.695312
vt 0.148438 0.765625
vt 0.148438 0.695312
vt 0.218750 0.695312
vt 0.218750 0.601562
vn -1.0000 0.0000 0.0000
vn 1.0000 0.0000 -0.0000
vn 0.0000 0.9969 0.0781
vn -0.0000 -0.9969 -0.0781
vn -0.0000 0.0781 -0.9969
vn 0.0000 -0.0781 0.9969
vn -0.5175 0.2771 -0.8096
vn -0.5170 0.2769 -0.8099
vn -0.5170 0.2769 -0.8100
vn 0.5171 -0.2769 0.8099
vn 0.5174 -0.2773 0.8096
vn -0.0075 0.9439 0.3302
vn -0.0074 0.9464 0.3229
vn 0.0075 -0.9443 -0.3289
vn 0.0066 -0.9447 -0.3277
vn 0.8560 0.1748 -0.4866
vn -0.8560 -0.1748 0.4866
vn -0.5178 -0.2772 0.8094
vn -0.5174 -0.2771 0.8096
vn 0.5174 0.2771 -0.8097
vn 0.5172 0.2771 -0.8098
vn 0.5171 0.2769 -0.8099
vn 0.0075 0.9425 0.3341
vn 0.0074 0.9475 0.3197
vn 0.0074 0.9475 0.3196
vn -0.0067 -0.9439 -0.3302
vn -0.0075 -0.9462 -0.3236
vn -0.8560 0.1748 -0.4866
vn 0.8560 -0.1748 0.4866
vn -0.9969 -0.0779 -0.0061
vn 0.9969 0.0779 0.0061
vn -0.0781 0.9939 0.0779
vn 0.0781 -0.9939 -0.0779
vn -0.9969 0.0779 0.0061
vn 0.9969 -0.0779 -0.0061
vn 0.0781 0.9939 0.0779
vn -0.0781 -0.9939 -0.0779
usemtl m_2
s 1
f 89/177/63 90/178/63 91/179/63
f 90/178/63 92/180/63 91/179/63
f 93/181/64 94/182/64 95/183/64
f 94/182/64 96/184/64 95/183/64
f 93/181/65 95/185/65 91/179/65
f 95/185/65 89/186/65 91/179/65
f 96/187/66 94/188/66 90/189/66
f 94/188/66 92/190/66 90/189/66
f 95/183/67 96/184/67 89/191/67
f 96/184/67 90/192/67 89/191/67
f 91/179/68 92/180/68 93/181/68
f 92/180/68 94/182/68 93/181/68
f 97/193/69 98/194/70 99/195/69
f 98/194/70 100/196/71 99/195/69
f 101/197/72 102/198/73 103/199/72
f 102/198/73 104/200/73 103/199/72
f 101/197/74 103/199/74 99/195/75
f 103/199/74 97/193/75 99/195/75
f 104/201/76 102/202/76 98/203/77
f 102/202/76 100/204/77 98/203/77
f 103/205/78 104/206/78 97/193/78
f 104/206/78 98/194/78 97/193/78
f 99/195/79 100/196/79 101/197/79
f 100/196/79 102/198/79 101/197/79
f 105/207/80 106/208/81 107/209/80
f 106/208/81 108/210/81 107/209/80
f 109/211/82 110/212/83 111/213/84
f 110/212/83 112/214/83 111/213/84
f 109/211/85 111/213/85 107/209/86
f 111/213/85 105/207/87 107/209/86
f 112/215/88 110/216/88 106/217/89
f 110/216/88 108/218/89 106/217/89
f 111/213/90 112/214/90 105/219/90
f 112/214/90 106/220/90 105/219/90
f 107/209/91 108/210/91 109/211/91
f 108/210/91 110/212/91 109/211/91
f 113/221/92 114/222/92 115/223/92
f 114/222/92 116/224/92 115/223/92
f 117/225/93 118/226/93 119/227/93
f 118/226/93 120/228/93 119/227/93
f 117/225/94 119/229/94 115/223/94
f 119/229/94 113/230/94 115/223/94
f 120/231/95 118/232/95 114/233/95
f 118/232/95 116/234/95 114/233/95
f 119/235/67 120/236/67 113/221/67
f 120/236/67 114/222/67 113/221/67
f 115/223/68 116/224/68 117/225/68
f 116/224/68 118/226/68 117/225/68
f 121/237/96 122/238/96 123/239/96
f 122/238/96 124/240/96 123/239/96
f 125/241/97 126/242/97 127/243/97
f 126/242/97 128/244/97 127/243/97
f 125/241/98 127/245/98 123/239/98
f 127/245/98 121/246/98 123/239/98
f 128/247/99 126/248/99 122/249/99
f 126/248/99 124/250/99 122/249/99
f 127/251/67 128/252/67 121/237/67
f 128/252/67 122/238/67 121/237/67
f 123/239/68 124/240/68 125/241/68
f 124/240/68 126/242/68 125/241/68
o WingLeftBottom
v 0.829570 1.606453 -0.407583
v 1.501122 0.051472 -0.552675
v -0.062232 1.187457 -0.044773
v 0.609320 -0.367525 -0.189865
v -0.062215 1.187460 -0.044726
v 0.609337 -0.367521 -0.189818
v 0.829587 1.606457 -0.407536
v 1.501139 0.051475 -0.552628
vt 0.000000 0.601562
vt 0.000000 0.335938
vt 0.164062 0.601562
vt 0.164062 0.335938
vt 0.164062 0.601562
vt 0.164062 0.335938
vt 0.328125 0.601562
vt 0.328125 0.335938
vt 0.164062 0.765625
vt 0.164062 0.765625
vt 0.164062 0.765625
vt 0.164062 0.601562
vt 0.164062 0.765625
vt 0.164062 0.601562
vt 0.328125 0.601562
vt 0.328125 0.335938
vn -0.3501 -0.0640 -0.9345
vn 0.3501 0.0640 0.9345
vn -0.3944 0.9146 0.0891
vn -0.3956 0.9146 0.0844
vn 0.3945 -0.9148 -0.0872
vn 0.3940 -0.9149 -0.0879
vn 0.8488 0.3991 -0.3469
vn 0.8501 0.3986 -0.3441
vn -0.8498 -0.3996 0.3438
vn -0.8489 -0.3988 0.3468
vn -0.8489 -0.3987 0.3469
usemtl m_2
s 1
f 129/253/100 130/254/100 131/255/100
f 130/254/100 132/256/100 131/255/100
f 133/257/101 134/258/101 135/259/101
f 134/258/101 136/260/101 135/259/101
f 133/257/102 135/261/103 131/255/102
f 135/261/103 129/262/103 131/255/102
f 136/263/104 134/264/105 130/265/104
f 134/264/105 132/266/105 130/265/104
f 135/259/106 136/260/107 129/267/106
f 136/260/107 130/268/107 129/267/106
f 131/255/108 132/256/109 133/257/108
f 132/256/109 134/258/110 133/257/108
o WingLeftTop
v 1.160985 2.679139 -0.660433
v 1.637323 1.524340 -0.615263
v -0.331081 2.085509 -0.102454
v 0.145257 0.930709 -0.057283
v -0.331067 2.085517 -0.102407
v 0.145271 0.930717 -0.057236
v 1.161000 2.679147 -0.660386
v 1.637338 1.524347 -0.615216
vt 0.000000 0.335938
vt 0.000000 0.140625
vt 0.265625 0.335938
vt 0.265625 0.140625
vt 0.265625 0.335938
vt 0.265625 0.140625
vt 0.531250 0.335938
vt 0.531250 0.140625
vt 0.265625 0.601562
vt 0.265625 0.601562
vt 0.265625 0.601562
vt 0.265625 0.335938
vt 0.265625 0.601562
vt 0.265625 0.335938
vt 0.531250 0.335938
vt 0.531250 0.140625
vn -0.2906 -0.1568 -0.9439
vn 0.2906 0.1568 0.9439
vn -0.3813 0.9238 -0.0339
vn -0.3802 0.9245 -0.0283
vn -0.3801 0.9245 -0.0283
vn 0.3795 -0.9247 0.0313
vn 0.3819 -0.9236 0.0340
vn 0.3818 -0.9236 0.0339
vn 0.8766 0.3475 -0.3330
vn 0.8780 0.3490 -0.3276
vn -0.8774 -0.3489 0.3292
vn -0.8764 -0.3486 0.3323
usemtl m_2
s 1
f 137/269/111 138/270/111 139/271/111
f 138/270/111 140/272/111 139/271/111
f 141/273/112 142/274/112 143/275/112
f 142/274/112 144/276/112 143/275/112
f 141/273/113 143/277/114 139/271/113
f 143/277/114 137/278/115 139/271/113
f 144/279/116 142/280/117 138/281/116
f 142/280/117 140/282/118 138/281/116
f 143/275/119 144/276/120 137/283/119
f 144/276/120 138/284/120 137/283/119
f 139/271/121 140/272/122 141/273/121
f 140/272/122 142/274/122 141/273/121
o WingRightBottom
v -0.829598 1.606460 -0.407489
v -1.501150 0.051478 -0.552581
v 0.062204 1.187463 -0.044679
v -0.609347 -0.367518 -0.189771
v 0.062222 1.187460 -0.044726
v -0.609330 -0.367521 -0.189818
v -0.829580 1.606457 -0.407536
v -1.501132 0.051475 -0.552628
vt 0.328125 0.601562
vt 0.328125 0.335938
vt 0.164062 0.601562
vt 0.164062 0.335938
vt 0.164062 0.601562
vt 0.164062 0.335938
vt 0.000000 0.601562
vt 0.000000 0.335938
vt 0.164062 0.765625
vt 0.164062 0.765625
vt 0.164062 0.765625
vt 0.164062 0.601562
vt 0.164062 0.765625
vt 0.164062 0.601562
vt 0.328125 0.601562
vt 0.328125 0.335938
vn -0.3501 0.0640 0.9345
vn 0.3501 -0.0640 -0.9345
vn 0.3949 0.9148 0.0846
vn 0.3964 0.9151 0.0742
vn 0.3963 0.9151 0.0743
vn -0.3941 -0.9150 -0.0865
vn -0.3950 -0.9147 -0.0856
vn -0.8512 0.3989 -0.3411
vn -0.8470 0.4000 -0.3502
vn -0.8470 0.3999 -0.3501
vn 0.8498 -0.3992 0.3441
vn 0.8489 -0.3989 0.3468
vn 0.8499 -0.3992 0.3440
usemtl m_2
s 1
f 145/285/123 146/286/123 147/287/123
f 146/286/123 148/288/123 147/287/123
f 149/289/124 150/290/124 151/291/124
f 150/290/124 152/292/124 151/291/124
f 149/289/125 151/293/126 147/287/125
f 151/293/126 145/294/127 147/287/125
f 152/295/128 150/296/129 146/297/128
f 150/296/129 148/298/129 146/297/128
f 151/299/130 152/300/131 145/285/130
f 152/300/131 146/286/132 145/285/130
f 147/287/133 148/288/134 149/289/135
f 148/288/134 150/290/134 149/289/135
o WingRightTop
v -1.161007 2.679155 -0.660339
v -1.637345 1.524355 -0.615168
v 0.331059 2.085525 -0.102360
v -0.145279 0.930725 -0.057189
v 0.331074 2.085517 -0.102407
v -0.145264 0.930717 -0.057236
v -1.160993 2.679147 -0.660386
v -1.637331 1.524347 -0.615215
vt 0.531250 0.335938
vt 0.531250 0.140625
vt 0.265625 0.335938
vt 0.265625 0.140625
vt 0.265625 0.335938
vt 0.265625 0.140625
vt 0.000000 0.335938
vt 0.000000 0.140625
vt 0.265625 0.601562
vt 0.265625 0.601562
vt 0.265625 0.601562
vt 0.265625 0.335938
vt 0.265625 0.601562
vt 0.265625 0.335938
vt 0.531250 0.335938
vt 0.531250 0.140625
vn -0.2906 0.1568 0.9439
vn 0.2906 -0.1568 -0.9439
vn 0.3805 0.9239 -0.0411
vn 0.3812 0.9238 -0.0340
vn 0.3812 0.9239 -0.0341
vn -0.3809 -0.9240 0.0331
vn -0.3813 -0.9236 0.0402
vn -0.3813 -0.9236 0.0403
vn -0.8767 0.3495 -0.3307
vn -0.8790 0.3481 -0.3259
vn 0.8794 -0.3498 0.3230
vn 0.8787 -0.3496 0.3251
usemtl m_2
s 1
f 153/301/136 154/302/136 155/303/136
f 154/302/136 156/304/136 155/303/136
f 157/305/137 158/306/137 159/307/137
f 158/306/137 160/308/137 159/307/137
f 157/305/138 159/309/139 155/303/138
f 159/309/139 153/310/140 155/303/138
f 160/311/141 158/312/142 154/313/141
f 158/312/142 156/314/143 154/313/141
f 159/315/144 160/316/145 153/301/144
f 160/316/145 154/302/145 153/301/144
f 155/303/146 156/304/147 157/305/146
f 156/304/147 158/306/147 157/305/146
