# Blender v2.82 (sub 7) OBJ File: 'aetherwave.blend'
# www.blender.org
mtllib aetherwave.mtl
o Base
v 0.625000 -0.153750 -0.356250
v -0.625000 -0.153750 -0.356250
v -0.625000 0.158750 -0.356250
v 0.625000 0.158750 -0.356250
v 0.625000 -0.509867 -0.238751
v -0.625000 -0.509867 -0.238751
v -0.625000 -0.153750 -0.356250
v 0.625000 -0.153750 -0.356250
v -0.625000 0.487680 -0.176166
v 0.625000 0.487680 -0.176166
v 0.625000 0.158750 -0.356250
v -0.625000 0.158750 -0.356250
v -0.625000 -0.153750 -0.356250
v -0.899108 -0.153750 -0.206180
v -0.899108 0.158750 -0.206180
v -0.625000 0.158750 -0.356250
v -0.568574 -0.509867 -0.253187
v -0.952326 -0.509867 -0.043089
v -1.008751 -0.153750 -0.146152
v -0.625000 -0.153750 -0.356250
v -0.922271 0.487680 0.011808
v -0.538520 0.487680 -0.198290
v -0.625000 0.158750 -0.356250
v -1.008751 0.158750 -0.146152
v 0.899108 -0.153750 -0.206180
v 0.625000 -0.153750 -0.356250
v 0.625000 0.158750 -0.356250
v 0.899108 0.158750 -0.206180
v 0.952326 -0.509867 -0.043089
v 0.568574 -0.509867 -0.253187
v 0.625000 -0.153750 -0.356250
v 1.008751 -0.153750 -0.146152
v 0.538520 0.487680 -0.198290
v 0.922271 0.487680 0.011808
v 1.008751 0.158750 -0.146152
v 0.625000 0.158750 -0.356250
vt 0.062500 0.671875
vt 0.218750 0.671875
vt 0.218750 0.750000
vt 0.062500 0.750000
vt 0.000000 0.312500
vt 0.156250 0.312500
vt 0.156250 0.406250
vt 0.000000 0.406250
vt 0.000000 0.312500
vt 0.156250 0.312500
vt 0.156250 0.406250
vt 0.000000 0.406250
vt 0.062500 0.671875
vt 0.101562 0.671875
vt 0.101562 0.750000
vt 0.062500 0.750000
vt 0.000000 0.312500
vt 0.054688 0.312500
vt 0.054688 0.406250
vt 0.000000 0.406250
vt 0.000000 0.312500
vt 0.054688 0.312500
vt 0.054688 0.406250
vt 0.000000 0.406250
vt 0.062500 0.671875
vt 0.101562 0.671875
vt 0.101562 0.750000
vt 0.062500 0.750000
vt 0.000000 0.312500
vt 0.054688 0.312500
vt 0.054688 0.406250
vt 0.000000 0.406250
vt 0.000000 0.312500
vt 0.054688 0.312500
vt 0.054688 0.406250
vt 0.000000 0.406250
vn 0.0000 -0.0000 1.0000
vn 0.0000 0.3133 0.9496
vn 0.0000 -0.4802 0.8771
vn 0.4802 -0.0000 0.8771
vn 0.4560 0.3133 0.8330
vn 0.4212 -0.4802 0.7694
vn -0.4802 -0.0000 0.8771
vn -0.4560 0.3133 0.8330
vn -0.4212 -0.4802 0.7694
usemtl Default_OBJ
s off
f 2/1/1 1/2/1 4/3/1 3/4/1
f 6/5/2 5/6/2 8/7/2 7/8/2
f 10/9/3 9/10/3 12/11/3 11/12/3
f 14/13/4 13/14/4 16/15/4 15/16/4
f 18/17/5 17/18/5 20/19/5 19/20/5
f 22/21/6 21/22/6 24/23/6 23/24/6
f 26/25/7 25/26/7 28/27/7 27/28/7
f 30/29/8 29/30/8 32/31/8 31/32/8
f 34/33/9 33/34/9 36/35/9 35/36/9
